<svg viewBox="0 0 1420 320" xmlns="http://www.w3.org/2000/svg" fill-rule="evenodd" clip-rule="evenodd" stroke-linejoin="round" stroke-miterlimit="2"><path d="M533.365 187.065a2.282 2.282 0 00-2.19-.87c-13-.11-26.13 0-39.17 0v-21.35c11.87 0 23.86.05 35.66 0a2.344 2.344 0 002.19-.81c.76-.76.79-.88.85-2.31.06-1.43.08-5.08 0-6.51-.08-1.43-.1-1.54-.86-2.3a2.344 2.344 0 00-2.19-.81c-11.8-.1-23.79 0-35.66 0v-20.65c12.72 0 25.57.05 38.23 0a2.272 2.272 0 002.18-.86c.75-.79.79-.78.86-2.28.07-1.5.07-5.43 0-6.92-.07-1.49-.1-1.58-.85-2.39a2.233 2.233 0 00-2.18-.86c-16.94-.1-34.13-.07-51.09 0a2.193 2.193 0 00-2 .87 2.481 2.481 0 00-.84 2.15c0 25.12-.05 50.55 0 75.7v.01a2.884 2.884 0 002.87 2.87h.01c17.25 0 34.77.07 52 0a2.283 2.283 0 002.18-.86c.74-.78.78-.79.85-2.28.07-1.49.07-5.43 0-6.92-.07-1.49-.11-1.84-.85-2.62zm102.66-68.29c-.76-.75-.72-.76-2.33-.86-1.61-.1-6.57 0-8.23 0a3.93 3.93 0 00-2.74.76 2.35 2.35 0 00-1.2 1.36c-7.67 14.14-15.17 28.09-22.88 42.11-7.59-14-15-28-22.64-42.1a2.343 2.343 0 00-1.24-1.4 4.003 4.003 0 00-2.7-.8c-1.69.08-6.72-.07-8.34 0s-1.58.1-2.33.86a2.322 2.322 0 00-.87 2.16c-.06 25.13 0 50.56 0 75.71a2.314 2.314 0 00.85 2 2.552 2.552 0 002.17.83c3 .07 6.49.07 9.55 0a2.38 2.38 0 002-.84c.577-.497.885-1.24.83-2 .07-16.72 0-33.62 0-50.39 5.4 10.33 10.81 20.8 16.31 31 .349.762.89 1.42 1.57 1.91.754.55 1.678.819 2.61.76 1.16 0 3.24.05 4.39 0a4.001 4.001 0 002.58-.77 4.646 4.646 0 001.61-1.89c5.51-10.23 10.91-20.7 16.31-31v50.39a2.37 2.37 0 00.79 2c.523.613 1.32.926 2.12.83 3 .06 6.5.06 9.5 0a2.552 2.552 0 002.17-.83 2.34 2.34 0 00.86-2c0-25.15.07-50.57 0-75.69a2.352 2.352 0 00-.72-2.11zm84.56 37.96c1.64-1.23 3.11-1.75 4.56-3.45 1.45-1.7 3-3 3.77-5.53.77-2.53 1.83-4.49 1.43-7.89-.4-3.4-.35-7.92-3-11.31-2.65-3.39-4.23-6.09-9.24-7.88a43.145 43.145 0 00-16-2.76c-9.21 0-22.32-.06-32.32 0a2.312 2.312 0 00-2.14.86 2.79 2.79 0 00-.82 2.17v75.67a2.552 2.552 0 00.83 2.05 2.46 2.46 0 002.13.84c10.43 0 23.65.12 33.38 0a39.097 39.097 0 0015.83-3c5.06-2 7-4.76 9.69-8.6 2.69-3.84 3-8 3.27-12.35s-1.26-8.07-3.34-11.53c-2.08-3.46-4.95-5.05-8.03-7.29zm-37.42-26.49c5.11.06 12.7-.08 17.26 0 4.56.08 6.76.59 9.74 2.74 2.98 2.15 3.27 4.37 3.26 7.63-.01 3.26-.35 5.5-3.27 7.74s-5.14 2.82-9.72 2.94c-4.58.12-12.15 0-17.27 0-.22-6.967-.22-13.983 0-21.05zm28.44 53.52c-3 2.5-5.16 3.24-10 3.39-4.84.15-12.94 0-18.4.05-.22-7.913-.22-15.813 0-23.7 5.46.07 13.54-.11 18.41.05 4.87.16 7 .88 10 3.36s3.49 5 3.47 8.48c-.02 3.48-.49 5.87-3.48 8.37zm112.36 3.08c-4.07-10.75-18-48.94-24.43-65.12-.27-.68-.9-3-1.87-3.13-.97-.13-1.45-.83-2.81-.79-3.73.14-8.43 0-12.18.06a4.175 4.175 0 00-2.86.87 3.58 3.58 0 00-1.45 2.12c-9 25.13-18.48 50.21-28.1 75.09a2.249 2.249 0 00-.24 1.17 2.28 2.28 0 00.74 1.73 2.645 2.645 0 001.74.7c3.1.06 6.82 0 9.79 0a3.911 3.911 0 002.47-.7 2.4 2.4 0 001.11-1.51c1.93-4.76 3.65-9.5 5.56-14.24h34.64c1.92 4.74 3.64 9.47 5.56 14.24.146.64.557 1.19 1.13 1.51a3.638 3.638 0 002.5.7c3-.15 6.57.3 9.84-.19.8-.12 1.57 1 1.56-1-.01-2 2.07 2.77 0-3.67-.9-2.84 1.37 2.95-2.7-7.84zm-48.42-17.19l13.22-36.02 13.31 36.06-26.53-.04zm100.33-57.61c1.67 0 5.71.06 7.25 0a6.632 6.632 0 002.66-.38 5.17 5.17 0 002-1.25c4.74-3.82 9.68-7.68 14.27-11.81.54-.49.81-.54.56-1.58s-.59-2.05-2.33-2c-3.69.08-8.29-.1-12 0a4.436 4.436 0 00-2.56.47 5.628 5.628 0 00-2.15 1.85c-2.93 3.54-6.21 7.57-9.2 11.29-.45.56-.8.72-.54 1.67s.37 1.78 2.04 1.74zm38.02 9.01a2.711 2.711 0 00-.79-2.3 2.502 2.502 0 00-2.13-.84c-3.24 0-7-.06-10.2 0a2.894 2.894 0 00-3 3.12c-.16 14.52.12 32-.12 45.78-.13 7.38-1 10.18-4.48 14.92-3.48 4.74-7.2 4.9-12.37 4.9-5.17 0-8.89-.18-12.42-4.9-3.53-4.72-4.4-7.52-4.53-14.91-.25-13.76 0-31.26-.12-45.78a2.752 2.752 0 00-.78-2.29 2.491 2.491 0 00-2.13-.84c-3.31 0-7-.06-10.36 0a2.48 2.48 0 00-2 .84 2.782 2.782 0 00-.83 2.29c0 14.38-.18 32.17.05 45.68.15 8.5 1.16 12.94 4.06 19.16 2.9 6.22 6.31 8.11 11.71 11.09 5.4 2.98 11.34 3.5 17.41 3.5s12.05-.5 17.44-3.5c5.39-3 8.74-4.87 11.61-11.1 2.87-6.23 3.86-10.66 4-19.15.17-13.5-.05-31.3-.02-45.67zm83 35.68c1.64-1.23 3.11-1.75 4.56-3.45 1.45-1.7 2.95-3 3.78-5.53.83-2.53 1.82-4.49 1.42-7.89-.4-3.4-.35-7.92-3-11.31-2.65-3.39-4.23-6.09-9.25-7.88a43.25 43.25 0 00-16-2.76c-9.21 0-22.32-.06-32.32 0a2.312 2.312 0 00-2.14.86 2.79 2.79 0 00-.82 2.17v75.68c-.04.755.262 1.49.82 2a2.433 2.433 0 002.13.84c10.43 0 23.64.12 33.37 0a39.11 39.11 0 0015.84-3c5.06-2 7-4.76 9.69-8.6 2.69-3.84 3-8 3.27-12.35s-1.26-8.07-3.34-11.53c-2.08-3.46-4.93-5-8.01-7.25zm-37.42-26.49c5.11.06 12.7-.08 17.26 0 4.56.08 6.77.59 9.74 2.74 2.97 2.15 3.27 4.37 3.26 7.62-.01 3.25-.34 5.51-3.27 7.75s-5.14 2.82-9.72 3c-4.58.18-12.15 0-17.27 0-.22-7.007-.22-14.043 0-21.11zm28.44 53.52c-3 2.5-5.16 3.24-10 3.39-4.84.15-12.94 0-18.4.05-.22-7.913-.22-15.817 0-23.71 5.46.08 13.54-.1 18.41.06 4.87.16 7 .88 10 3.36s3.49 5 3.47 8.48c-.02 3.48-.49 5.87-3.48 8.37zm112.365 3.08c-4.07-10.75-18-48.93-24.43-65.12-.27-.68-.9-3-1.87-3.13-.97-.13-1.45-.84-2.82-.79-3.72.14-8.42 0-12.17.06a4.215 4.215 0 00-2.86.86 3.63 3.63 0 00-1.45 2.14c-9 25.12-18.49 50.2-28.1 75.09a2.191 2.191 0 00-.24 1.16c0 .644.273 1.258.75 1.69a2.645 2.645 0 001.74.7c3.1.06 6.82 0 9.79 0a3.93 3.93 0 002.49-.7 2.4 2.4 0 001.11-1.51c1.93-4.77 3.65-9.5 5.56-14.24h34.64c1.92 4.74 3.63 9.47 5.56 14.24a2.322 2.322 0 001.11 1.5 3.61 3.61 0 002.49.7c3-.15 6.58.3 9.85-.19.8-.12 1.56 1 1.56-1s2.07 2.78 0-3.67c-.94-2.79 1.36 3-2.71-7.79zm-48.42-17.19l13.18-36.06c4.44 12 8.873 24.02 13.3 36.06h-26.48zm123.31-47.38c-4.64-1.91-8.4-2.55-14.37-2.7-7.78-.18-18.35 0-26.67 0-.91 0-1.41 0-2 .74a2.43 2.43 0 00-.7 2v74.55c-.05.71.205 1.409.7 1.92.49.66 1.09.64 1.8.72.692.07 1.388.07 2.08 0a2.31 2.31 0 001.9-.73 2.472 2.472 0 00.69-1.91c.1-9.9-.12-20 .2-30 6.61-.1 15.93.13 21.94-.06 6.01-.19 9.79-.78 14.42-2.71 4.63-1.93 6.81-4.21 9.4-8.07 2.59-3.86 3.27-8.26 3.27-12.85s-.67-9-3.27-12.84-4.75-6.15-9.39-8.06zm.25 33.3c-4.37 3.46-8.89 4.13-15.12 4.36-6.23.23-14.85 0-21.5.08-.21-11.23-.21-22.42 0-33.65 6.66.11 15.27-.15 21.5.08 6.23.23 10.75.9 15.11 4.36 4.36 3.46 5.07 7.28 5.07 12.38 0 5.1-.72 8.93-5.06 12.39zm84.93 37.84a2.702 2.702 0 00-2-.69h-39.26v-70.51a2.453 2.453 0 00-.69-1.9c-.49-.67-1.09-.65-1.81-.73a9.75 9.75 0 00-2.16 0c-.73.08-1.33.06-1.81.72a2.479 2.479 0 00-.7 1.9v74.72c-.002.045-.004.089-.004.134a2.522 2.522 0 002.654 2.506c14.48.06 29.34 0 43.79 0a2.821 2.821 0 002-.68c.72-.46.65-1.1.75-1.77.085-.59.085-1.19 0-1.78-.11-.7-.05-1.42-.76-1.92zm54.42-71.46a3.47 3.47 0 00-1.27-1.8c-.71-.61-1.24-.54-2.22-.61a30.883 30.883 0 00-3.6 0 3.172 3.172 0 00-2.22.61 3.506 3.506 0 00-1.27 1.83c-9.82 24.45-19.56 49.24-28.87 73.94-.175.445-.25.923-.22 1.4-.008.58.237 1.135.67 1.52.433.42 1.007.666 1.61.69h2.2a2.831 2.831 0 001.73-.57c.362-.285.636-.666.79-1.1 2.29-6.19 4.64-12.26 7.13-18.33h40.54c2.31 6.14 4.59 12.24 7.13 18.31.189.434.48.815.85 1.11.47.387 1.061.596 1.67.59h2.21c.6-.025 1.17-.271 1.6-.69a2.09 2.09 0 00.68-1.55 2.848 2.848 0 00-.23-1.36c-9.3-24.73-19.1-49.51-28.91-73.99zm-22.78 50.74l17.49-45.06c5.827 15.02 11.66 30.04 17.5 45.06h-34.99zm123.59-51.01a2.29 2.29 0 00-.69-1.49 2.521 2.521 0 00-1.61-.66 17.78 17.78 0 00-2.19 0c-.66.09-1 0-1.52.46-.522.361-.95.841-1.25 1.4-8.22 13.26-16.51 26.81-24.73 40.18-8.4-13.27-16.76-26.76-24.74-40.2a3.62 3.62 0 00-1.19-1.39 2.45 2.45 0 00-1.57-.45c-.728-.07-1.462-.07-2.19 0-.7.08-1.19.07-1.6.73-.41.66-1 .69-.6 1.63s-1.13-1.35.48 1.37c1.61 2.72-2-3 2.88 5s18 29.44 24.36 40c.84 9.95.33 19.18.53 28.69a2.548 2.548 0 00.69 1.9c.49.68 1.08.65 1.81.73.721.075 1.449.075 2.17 0 .74-.07 1.41-.07 1.91-.73a2.494 2.494 0 00.7-1.91v-27.85c9.193-15.3 18.483-30.54 27.87-45.72.165-.222.287-.473.36-.74.116-.302.158-.628.12-.95z" fill-rule="nonzero"/><g fill-rule="nonzero"><path d="M350.395 38.975c-1 1.49.94 3.19 2.34 2.3 1.91-1.12-1.16-4.49-2.34-2.3zm-39.26 3.7c-1.83 0-3.92-1.48-5.47-1.1.6.77 5.12 2.41 6.6 2.92 1 .36 5.63.11 3.77-1.31-1.38-.78-3.36-.25-4.9-.51zm-34.57-23.05c3.29.12 5.77.9 9.12 1.16 9.6.46 20.25.35 29.93 1.21 3.88 1.15 4.79 8.18 7 11 1.94 2.3 2.92 7.29 5.43 7.64 2.49-1.67-.74-6.27-.52-8.85-.08-.9-1.56-6.43.05-6.06 2.68 1.08 3 16.1 7.62 12.68 1-1.18.65-3.54.87-5.07.11-.89-.24-2.18.24-1.63.48.55 1.76 4 2.14 4.69.87 2.32 2.19 3.07 3.17-.26.9-2.89.18-7.43-.4-10.35a19.846 19.846 0 01-.45-2.94c1.14-4.74 9.18-3.84 12.89-3.61 13.51-3.9 28.34-2.05 42.19-2.36a26.283 26.283 0 007.48-1.36c1.09-.58 2.75-1.41 3.58-1.91.29-.19.08-.18 0-.39-.08-.21-.5-.17-.65-.12-.15.05-.09.05-.2 0-.11-.05 0-.1-.17-.15-.77-.3-1.6.27-2.36.28-14.41 3.07-30.58-.37-45.06 2.63-3.5.92-5.72.35-9.1.68-2.78.27-6.55 2.17-9.15 2-.83-.32-.84-.93-1.51-1.79-1.86-5.28-8.36-5.18-12.94-4.09-4.58 1.09-7.42.31-11.08 3.38-3.79 3.6-8.33 3.76-13.11 3-6.65-1-13.89-.11-20.7-1.46-1.87-.39-13.48-1.93-9.65 1.65 1.66.7 3.48.36 5.34.4zm61.55.37c1.12 3.85 1.73 9.85 2.25 13.85.2 1.85-.29 2.13-.63 2.12-.49 0-2.4-7.88-2.63-8.61-1.17-4.51-4.08-7.51-3.93-11.51.89-3.79 4.46 2.51 4.94 4.15zm-13.17-5.21c7.37 1.06 8.25 13.37 9.23 19.7.06.36.19 2.78-.66 2.14-1.84-2.5-2.34-8.57-3.75-11.8-1.68-3.62-4.95-5.36-5.63-9-.07-.39.63-1.04.81-1.04zm-8.27 1.13c4.79-1.86 6 4.84 7.56 8.36.68 3.22 3.57 10.53 2.81 13-2.62-1.55-4.76-8.42-6.59-11.42-1-1.74-2.24-4.75-3-5.81-.94-1.31-2.58-3.14-.78-4.13zm-13.39 20.35c1.41-.85.58-3.66-1.14-3-1.05.65-1.82 1.72-3.23 2-6.38 1.09-14-1.33-20-.15-.63 1.43 1.42 1.7 2.64 1.54 4.3.28 8.88.61 13.24.79 2.24.48 5.77 3.28 7.61 3 .45-.55-.51-1-.58-1.67-.36-1.15.67-1.87 1.46-2.51zm-285.24-21.56c2.37 1.14 6.59 1.14 9.22 1.51 14.21 2.19 28.13 2.71 41.2 5.84 9.55 3.3 19.89 6.69 30.22 8.14 5.48 1.08 10.3 4.82 15.49 7 3.13 1.28 7.35 1.48 8.5 4.86.73.92.11 1.12-.15 1.47-4.52 6.24-10 12.11-17.48 14.38-1.94.69-17.12 2.8-12.64 6 1.44.3 2.3-.36 4-1.07 3.13-2.1 7.26-2.36 11.15-3.87 9.59-4.65 17.93-13.59 23.22-23 .93-1.4 3.17-4.62 0-2.42-1.42 1-2.74 3.68-4.74 3.72a52.74 52.74 0 01-10.38-4.85 2.693 2.693 0 00-1.82-.61c-2.63 2.87-5.69-.75-7.83-2.73-5.6-4.7-14-2.12-20-6.55a32.657 32.657 0 00-15.17-4.16c-20.07-4.38-41.47-4.74-61.88-5.92a11.134 11.134 0 00-5.38.47c-.83.5 1.69 0 1.88 0 2.39-.26 5 .75 7.41.88 1.8.42 3.48.39 5.18.91zm120.3 26.97c1.41-1.36 3.15-1.77 4.64-2.59 1.48-3.24-6 .67-6.92 1.66-3.3 2.1-4.39 6.87-7.43 9.1-.61 1 .27 2.18-.26 3.23-2 1.65-5.07 3-7.2 4.55-2.21.56-2.86 2-3.29 4-.82 1-2-.55-3.07 0a6.93 6.93 0 00-1.89 1.63c-2 3.25-6.89 4.81-9.76 6.87-.65.45-.75.34-.7.94-.16 1 1.92-.27 2.66-.35 8.73-2.74 19-5.29 25.39-12.2 4.45-5.47 8.18-10 13.66-14a105.087 105.087 0 0118.07-.93c7.82-.64 15.15 1.23 22.72-1.17 1.24-.37 2.46-2 .73-2.16-5.59.87-11.78.39-17.3.69-2.61 0-5.53 1.12-7.35-.81-.39-.76-.21-1 .66-1.33 5.17-2 11.47-.11 16.52-2.74 1.87-.13 6.54.88 7.48-1-2.16-4.84-9.9-1.87-14.17-1.35-3.55.8-7.34.06-10.63 1.12-4.25 1.45-8.89-1.51-13.17 0-1.93.57-1.15 3.2.45 3.49 1.27.31 2.17-.92 3.42-.88 1.9.42 3.83 1.57 5.85 1.33 4.68 2.15-6.75 1.92-8 2.15-3.34.32-7.51 2.73-10.17 4.73-7.26 7.02-5.73-.45-.94-3.98zm-40.99 31.28c-.68.2-2.07 1.85-.7 2 1.66.04 3.85-2.67.7-2zm-2 110.19c.71-3.68 1.65-10.85-4.06-9.56-6.8 1.53-12.44-5.78-13-5.15-.79.83 5.85 4.3 4.67 12.62.08 4.81.66 6.79 8.24 5 4-.58-9.28 11.63-10.31 13.13-1 1 0 .93.08 1 9.52-7.08 18.09-16.7 22.63-26.36 0-.07 1.4-2.33 1.4-2.4-.24-4.8-8.54 13.57-9.65 11.72z"/><path d="M422.675 37.285a74.667 74.667 0 01-8.63 8c-.76.43-.89.33-1.62 0-1.33-1-2.24-2.93-4.11-3.41-3.09-.47-6.38 1-9.4 1-3.4 1-.45 4.38-1.25 6.52-2.4 4-10.34 4.47-14.83 5-3.27-.12-6.23-1.08-9.1-.54-1.53 0-3.83 1.16-4.33-.84-.22-1.5.93-3.21-.06-4.69-1.92-1.95-2.6 2.55-3.44 3.65-1.32 2.18-2.63 1-4-.18-1.47-.54-3 .84-4.38-.39-1.52-.79-2.38.92-3.82.53-2.42-1.79-2.94 1.85-5.22 1.65-2.95-.49-6.55-.73-9.6-1a74.014 74.014 0 00-9.57-.21 70.437 70.437 0 01-9.19-1.84c-3.73-.3-6.28-4.39-9.8-3.56-2.21.11-3.69-1.54-5.85-1.73a14.14 14.14 0 01-7.37-2.4c-1.47-.45-2.76.54-4.22.33-4.38-2.44-9.5-2.67-14.22-4.08-2.24-.87-2.78-3.1-4-5.29-1.93-3.71-5.2-8.7-7.75-12.52-3.11-4.43-7-9.58-12.47-9.39-4.52.42-9.22 1-10.8 5.86-2.63 2.78-7.16 1.38-10.62 1.14-6.23.1-13.24-1.5-19.18.43-1.59 3.38 6.62 1.65 8.43 1.79 5.36 1.13 20.46-2.19 21.39 4.71.27 2.93-3.27 2.27-5 3.38-3.16 3.95-8.3 2.33-11.22-1.08-2.35-1.92-5.82-1.4-8.61-1.24-6.4.42-.32 5.67-2.34 8.7-.54 1.46.85 2.32 2.18 2.43 2.758.088 5.504.403 8.21.94a101.2 101.2 0 0119.73 4.26c3.85 1.54 4.06 6.51 4.62 10 .29 3.12 2.39 5.15 2.79 8.18a73.798 73.798 0 00-.26 7.45c1.07 10.21.2 20.5 3.8 30.25-.78 7 0 14.08 1.23 21 .84 7.6.71 14.48 4.1 21.41.41 3.73-.06 8 1.95 11.74 1.42 4 14.21 14.86 8.85 17.55-1.61.11-3.56-.69-5 .43-1.63.93-3 1.81-4.65 2.58-2.85.56-7-.55-10-1.35-5.74-1.36-11.49-1-17.32-1.14-3.14.53-8 3.54-8.93-1.44-1.06-18-1.73-36.54 1.08-54.53-1.24-18.18-9.57-34.93-16.51-51.34-3-9.3-.47-18.36.22-27.72a29.812 29.812 0 00-7.6-21.21c-4.86-6.83-12.6-3.39-18 .84-1.08 1.56-2.43 3.56-4.68 3.34-10.18.65-20 3.08-30.22 4.16-6.72-.39-13.23-1.31-20.21-.24-8 1.74-14.67-1.28-22.15-4.4-6.16-1.16-12.15-5.08-18.69-5-10-1.72-20.35-2.13-30.08-6.32-11.79-5.92-26.56-6.06-40.19-4.61-2-.11-4.66-.56-6.57-.16a7.924 7.924 0 00-2.7.06 6.871 6.871 0 01-1.73-.09c-.27-.11-.64.25-.23.31 4.57.7 8.58 2 13.35 2.22 4.65-.55 9.55-1.28 14.47-.09a73.688 73.688 0 0127.6 6.75c7.72 1.87 16.16 3.25 23.78 4.35 11.19 1.23 21.73 5.36 31.68 9.67 9.54 1 19.17-1.56 28.74-.23 4.64.56 10-1.32 14.57-1.44 8.17-1.45 16.74-1.75 24.76-2.37a4.35 4.35 0 012.84.62c2 2 .15 5.39.06 8.06-1.68 11.22-2.52 23-4.53 34.4-1.62 6.58.14 13.86-.76 20.4.78 8.44-2.45 16.35-2.77 24.68.2 11.25-.57 22.7-5 33.28a33.152 33.152 0 01-5.66 19.13c-7.21-14.71-19.39-24.26-32.55-33.61-4.87-6.4-9.29-14-15.09-19.76-9.84-10.37-23.7-16.39-34.18-25.89-.93-.77-2.64-2.32-1-3 4.29-.78 2.32-6.86 1.74-9.75-1.81-5-5.17-9.19-10.1-10.44a18.26 18.26 0 00-17.31 4.15c-2.74 3.07-1.77 7.67-2.15 11.31-.32 2.49-1.87 3.83-3.92 5.32-3.57 2.56-7.8 5.49-10.66 8.75-6.15 6.18-9.28 14.12-13.81 21.76-4.95 8.2-13 16.56-22.22 20.4-1.14.55-1.51.66-1.91 1.56-.74 1.51 2.69-.66 3.28-.8 9.24-4.3 17.91-11.3 22.59-20 5.38-9.3 8.42-19 17.31-25.47 3.89-3.45 9.08-6.71 12.54-10.23 4.27-6.79 5.71-11.4 13.77-5.26 6.77 5.23.96 6.16-4.23 6.41-2.36-.89-5.09-1.71-6.4 1.15-.55.56-1.17 2.29.12 2 .75 0 1.87-1.39 2.36-.22.28.75.39.69-.24 1.56a16.91 16.91 0 01-6.79 6.63c-2.58 2.19-6.07.3-9 1.79-5.71 4-7.57 10.67-10.69 16.43a238.865 238.865 0 00-14.88 21.07c-2.59 4.07-7.14 7.11-10 10.57-.27.58-.19.61.46.34 5-2.36 9.79-7 14.06-11.05 11.43-11.3 15.48-33 32.7-36.62 6.84.78 10.38 9.43 14.53 14 12.78 18.6 25.27 36.88 40.28 52.82 3 3.63 6.83 7.22 6.61 11.76 0 .15 0 .3.06.46-.89.52-.59 6.32-1 6.38-5.09 11.08-3.22-.52-.81-3.07-9.24-3 1-1.38-.07-2.66-.48-.33-12.52-7.07-4.23-4.47 1.36 1.23 4 1.69 1.69-.88-3-3-12.68-10.05-15.86-12.68-6.65-6.37-14.65-9.26-23.09-11.86-2.23.06-4.68 0-6.9 0-6.48 2.17-14.13 3.84-20 7.12-7.51 5.13-11.67 12.56-16 20.33a64.261 64.261 0 01-1 7.77c.1 1.44 1.19 2.35 1 3.89-.78 1.57-2.45 6-.77 7.59 0 2.13-2.08 6.17.75 7 5.95 13.18 7.33 26.91 9.06 12 1.49 3.85 1.45 13.85 3.76 16.69.15 0 .23-.27.26-.47.08-.66.19-1.5.31-2.14 0-.22-.07-4.84.21-4.71 1.69 2.59 2.52 10.09 4.21 12.82 1.14 3.12 2.21 6.28 4 8.86.709.4 1.606.267 2.17-.32.26-.16 0-1.41.35-1.08 2.35 2.47 4.59 5.36 7.09 7.73.184.057.375.087.567.087a1.909 1.909 0 001.883-2.157c-.11-.4-.66-.64-.58-1.13 0-.11-.16-.18 0-.14.492.189.973.406 1.44.65 1.61.68 2.65 3.12 3.8 4.29.79.78 1.08.15 2.15 0 .93.24 1.39 1.51 2 2.4 1.13 1.4 1.13 5.43 2.47 6.11.48.13.37-.19.48-.57.27-.7-.25-2.14.57-2.5.44-.1.25.49.31.77.3 1 2.44 2.85 3 3.86.89.72 1.24 3.64 2.61 3.3.63-.39 0-1.69 1-1.7.29-.1.06-.41.44 0 1.05.82 2.11 2.92 3 4 .4.62.58.89 1 .43.42-.46-.31-1-.37-1.36-.26-1.51 1.87 1.21 2.1 1.58.71 1.41 1.65 3.12 3.39 3.38.61.27 2.2 2.09 2.55 1 .13-.31-.14-.24-.19-.42-.05-.18-.09-.22-.12-.37-.59-1.18 1.47.21 2.1.38.51.86 2.67 1.64 2.69.1a4.152 4.152 0 011.11-3.56c.38-.21.26-.45.69.17 2.25 3.62 5.21 7.78 8.75 10.31.64.6.53.46 1 .22.47-.24 0-.24-.1-.42-.13-.67-.7-1.13-.81-1.67-1.2-2.76 4.72 2.13 5.5 2.56 1.8 1.28 3.86 2.4 6.11 2.17 1.79-.21 3.7-1.46 5.39-.31 1.44 1.26 1.82 5 4.46 3.25 1.28-.39 2.69-.17 3.92-.77 1-.7 1.91-2.12 3.37-1.83 4 .85 4.87 6 7.83 8.21a7.093 7.093 0 009-1.42c2.45-.68 3.2 3.22 4.9 4.49 3.59 2 5.84 5.1 8.36 8.21 3.34 2.43 8.33.61 11.71 2.59 1.46 1.31.45 4.49 2.23 5.38 2.14-.07 2.1-3.45 3.47-4.53s1.9 1.72 2.83 2.5c1.27 1.3 3.45 1.62 4.58 3.1.89 1.37.55 3.2 1.47 4.47 1.31 1.42 2.77-.59 3.84-1.48 2.33-3 5.31-2.7 7.29.45a58.43 58.43 0 015.36 6.25c3.14 2.14 6.35-1.54 6.14-4.86 1.41-6.21 6.59 2.53 7.89 4.8.81 3.57 4.13 4.37 6.17 1.73.72-1.06 1.11-2.88 2.5-3.23 1.39-.35 1.74 1.16 2.9 1.41 4.2.89 6.21-4.95 9.83-5.48 2.35.66 1.77 5.23 5.14 4.08 2.45-1 5.06-.92 7.47-2s4.17-4.2 7.15-3.68c5.2 1.51 10.88-1.87 15.77-3.15 2.9-1.32 5.25-3.7 7.75-5.47.4-.07.48 0 .7.41 1 6.05 5.61-5.17 7.35-6.34.81-1.4 2-.94 1.43.46-.16 1-1.14 4.46.89 3.17 2.87-2.19 5.15-5.52 8.44-7.08 2.09.23 4.37-.06 5.55-2.08 2.44-3.35 7.23-4.08 9.65-7.54 1.74-2 1.86-7.16 4.82-7.35 1.15.37.84 2.1 1.55 2.87.82 1.06 1.91 0 2.73-.54a6.536 6.536 0 003.14-2.79c.51-1.23.78-3.31 2.56-3.16 4.1 2.34 6-3.19 7.85-6 .55-.7.51-.79 1.28-1.05 3.53 0 4.29-7.07 7.19-8.66 2-.13 2.42-2.23 3.12-3.86a10.513 10.513 0 014.42-5.63c3.3-2.63 3.52-8.6 6.55-11.85.41-.36.15 0 .63.05 2.73.25 3.3-5.29 4.9-7.2a9.53 9.53 0 011.09-2c.51-.58 1.28-.19 1.49-1.13a139.716 139.716 0 002.55-15.71c.07-5.73 1.47-12.54.63-18.26-1.87-3.12-1.33-8.55-3-12.69-1.57-4.65-1.48-9.81-2.13-14.6-1-6.18-4.11-12.8-5.5-18.48-.93-4-1.61-6.77-4.66-9-1.25-1.29.47-2-.4-3-1.8-3.52-3.49-7.47-6.16-10-.48-.59-.12-.19-.32-.25-1.39-.65-2.05-2.76-3.25-3.85a21.264 21.264 0 01-2.56-3.8c-.08-.31 0-.31-.1-.82a5.955 5.955 0 00-.32-1.48c-2.72-7.81-4.76-16.41-8.87-24-1.88-5.94-2.42-12.77-4.19-18.77-.92-9.28-4.64-11.53 7.44-11.22 4.13.36 7.9 2.25 12.25 2.63 7.73-1.11 17.33-3.59 25.09-5.1 11-2.64 21.78-5.07 27.89-15.58.55-.87-.6-1.12-1.38-.29zm-180.09-6.44c2.61-1 5.84 2.56 2.12 3.6-1.81.45-4.3-2.6-2.12-3.6zm4 8.7c-5.83.46-12.2-2.48-18.05-2.86-1.43-.42-5.16-.55-4.72-2.29 2.68-2.76 8 .12 11.36.06 1.6 0 2.77-1 4.31-.73 2.1.88 3.8 3.16 6 3.83.74.42 2.42 0 2.22 1.18-.21.63-.43.78-1.14.85l.02-.04zm2.87-23a.912.912 0 01-.861.617.913.913 0 01-.899-.767c-.25-1.24 2.28-1.05 1.74.2l.02-.05zm-169.88 79c-.72.42-2.18-1.61-1.22-2.1.73.07 1.41 1.52 1.2 2.18l.02-.08zm-36.51 91.82c-.65-.05-.5-1-.5-1.45.51-2.14 1.77 1.24.5 1.45zm4.13.11c-.44-.82-.72-3 .69-1.62.88.8.32 3.5-.69 1.62zm343.09 11.3c.51 1.73-2.4 7.45-2.34 2.79.12-.91 1.24-4.72 2.34-2.79zm-44.64-88.15c1.57-2.52 3.65 4.64.91 2.6a2.944 2.944 0 01-.91-2.6zm-1 26.4c-3.46-.26-7.42-6.87-1.11-3.9 2.84.89 4.63 4.16 1.15 3.9h-.04zm3 11.71c2.6 3.49-2.44 2.09-2.8-.28-.08-1.78 2.22-.31 2.83.28h-.03zm-5.5 17c-4.3 1-9.37-3.7-6.64-7.79 1.45-.85 3 .56 4.42 1.22 2.93 1.49 7.5 4.46 2.25 6.57h-.03zm2.23 27c-.86.11-1.64-2.21-.82-2.56.84-.1 1.74 2.24.85 2.56h-.03zm-1.47-6.9c-.59 3.07-2.19.49-2.45-1.43-.16-.37-.1-1.55-.45-1.59-.41.27-.11 1.1-.52 1.53-.22.26-.6.53-.85.09-1.13-2-2.35-4-2.6-6.31 0-.39 1.11.51 1.21.9a3.67 3.67 0 002.52 1.24 1 1 0 011.49-.8c1.79 1.6 1.4 4.27 1.68 6.38l-.03-.01zm-17.05-34.76c-1.35-.29-2.55-2.1-3.48-1.17-.49 1.06 1.92 1.24 2.1 2.44.69 1-.15 2-1.34 1.35-1.7-.61-4-1.77-4.93-3.4-.46-.7 0-.76.17-1.37.65-1.34-.89-2.13-1.68-3.12-3-3.43-6.26-7.07-8.86-10.59-7.76-5.67-14.5-12-18.33-20.86-.4-1.09-1.29-3.11-.28-3.65.7-.27.62-.21 1.31.64 5.1 5.25 8.16 13 14.6 17 6.44 4 14.12 3.36 19.89 8.31.62.4-.09.5-.45.55l-.83.07c6.49 3.49 14.69 4.43 18.05 11.86.56 1.24-3 3.91-3.16 3.5a12.756 12.756 0 00-1.64-2.63c-7.14-.92-16.14-6.52-21.51-10.51-1-.62-1.42-2.92-2.41-2.43-.73.78.67 2.51 1.23 3.41a69.747 69.747 0 0013.75 9.55c4.86 3 11.85 2.14 16.14 5.73 1.39 3.85-8-1-9.69-1.6-2.64-.99-6.16-1.96-8.62-3.08h-.03zm3.3 9c-.55.79-2 .26-2.23-.62-.16-1.61 2.93-.49 2.26.57l-.03.05zm-15.27 77.7c.5 3.62-.86 2.09-1-.45-.66-3-3.65-7.29-2.13-10.39 2.47-1.8 2.59 6.88 3.4 8.25.26 1.08-.5 1.57-.24 2.54l-.03.05zm-2.1 11.84c-1 6.32-2.27-4.65-.74-5.32.66-.27.63.69.7 1.24.02 1.12.08 2.86.07 4.03l-.03.05zm-2.19-37.4c-1.56-1.45-2.34-4.79 0-3.47 1.67 1.3 3.58 6.58.03 3.42l-.03.05zm-1.29 18.14a8.532 8.532 0 01.75 4.86c-1.24 2.42-4.32-1.22-4.05-3-.24-2.18 2.16-4.77 3.33-1.91l-.03.05zm.59 44.93c.15 1.09-.07 4-1.7 2.94-1.81-2.01 1.69-8.65 1.73-2.99l-.03.05zm-3.22-54.23c-.72.43-2.32-1.86-1.56-2.39.76-.53 2.32 1.82 1.59 2.34l-.03.05zm-9 15.75c-.43-.74-.89-2.35 0-2.91 1.08-.16 2.16 1.56 2.38 2.51.71 2.44-1.62 2.18-2.38.35v.05zm.14 12.83c-.37 2.07-2.34.94-2.07-.71.48-2.08 2.62-1.08 2.07.66v.05zm.93-18.26a23.6 23.6 0 00-6.66-9.12c-1.6-1.13.48-2 1.45-.92 3.85 2 7.23 6 8 10.35 1.31 5.63-1.06 4.16-2.77-.36l-.02.05zm-3.56 5.68c-1.38-.35-3.34-3.59-1.91-4.69.59-.32.93.19 1.2.69.29.79 1.96 3.79.71 3.95v.05zm-5-28.57c.2 1 2 2.89.67 3.56-.77.25-1.32-.05-1.84-.8-1.68-2.42-1.87-5.81-1.47-8.65.93-2.62 3-10.92 5.33-4.5.53 2.51 1.18 5.86-.17 8.11-1 .7-3.31.05-2.56 2.23l.04.05zm-3.79-19.9c-.81-1.29-1.14-4.52.71-2.77 1.24 1.8 2.79 4.36 2.69 6.59-.89 1.67-3.03-3.08-3.44-3.87l.04.05zm5.57-10c-.29-4 3 3 3.74 4.2-1.71-.16-3.94-2.19-3.78-4.23l.04.03zm4.2 31.08c.57-2.41 2 1.39.56 1.63-.77-.08-.6-1.11-.6-1.66l.04.03zm4.53-11.73c1.19 1.62.09 4 .19 5.83-.87 3.05-2.16-2.74-2.23-3.75-.32-1.17.7-3.45 2-2.11l.04.03zm.68 13.49c-.5-.93-.81-3.35.77-1.83.99.87.33 3.91-.81 1.8l.04.03zm1.16-32.36c-2.54-1.77-5.09-3.45-7-5.93-.8-.89-2-3.11-3.17-1.55-1.67 1.42-3.83-.07-5.38-1-.94-1-.31.93-.08 1.4 1 2.54-.12 5.27-2.48 2.22-1.59-3.38-4.37-6.87-4.22-10.71-.07-.44-.42-.6-.69-.83-5.92-3.44 1.64-5.18 4.64-3.24.29.08.39.44.17-.31-.32-1.56-1.85-5 .36-5.61 1.62.15 1.56 2.88 1.94 4.12.41 2-.12 1.92-1 3.1.95 1.87 2.11 4.25 3.81 5.64 1.45.95 2.53-.94 3.9-.76.94.08 1.26 1.85 1.72 1.39.46-.46-.05-.82-.14-1.43-2.63-14.52 7-.46 3.44 5 1.11 2.41 15.28 16.28 4.14 8.47l.04.03zm-25.63 4.32c.66-.5 2 1.86 1.21 2.06-.77-.1-1.46-1.49-1.25-2.09l.04.03zm-.34-2.91c-.22-.58-.65-1.33.26-1.06s1.58 1.91 1.94 2.64c.36.73.63 1.09 0 1.43-1.37.36-1.77-2.15-2.24-3.04l.04.03zm4.11 16.33c-.91.86-1.54-1-1.79-1.67-.27-1.12-1.16-2.22-1-3.39 1.23-.46 3.82 3.69 2.75 5.03l.04.03zm2.66-51.84a3.29 3.29 0 011.62 3.89c-1.11 2.12-2.69-3.96-1.66-3.92l.04.03zm3.71-1.68c-1.21-1.07-1.94-4.09-1.89-5.73 1.24-2.6 3.36.34 2.63 2.12-.32 1 .69 3.67-.78 3.58l.04.03zm1.88 10.65c.14-1.86-.06-4.45 1.8-5.42.74-.43 1.22-.11 1.27.76.21 3.49-.06 7.11 0 10.58 0 .64-.49 1.57-1.24 1.11-2.19-1.19-1.99-4.73-1.87-7.06l.04.03zm4.49-12.09c1.72-3.67 1.55 3.93 0 1.18a3.89 3.89 0 010-1.18zm9 21.27c.72-.65 1.75.76 1.6 1.52-.68 2.02-2.77-.45-1.6-1.51v-.01zm3.05 35.27c1.29-.14 1.32 2 0 1.89-1.19.15-1.18-1.9 0-1.88v-.01zm1.39-26.11c1-3.19 4 .9 3.82 2.89a46.332 46.332 0 001.63 7.39c.23.93.61 1.68-.18 2.1-.79.42-.75-.39-1.26-1.18-2.24-3.06-4.62-7.28-4.01-11.19v-.01zm.43-12.84c-.52-.48-1.08-1.58-1.58-.67-2 1.1-3.22-1.51-4-2.72-.4-.1-.25.16-.63.43-2.34 2.79-5.35-1.57-4.4-4.12 1.63-3.52 4.17.27 4.83 2.22.09.22.38-.58 1.18-.32.64.1 1.27.79 1.84.74a.794.794 0 011-.31c4.64 3.3 10.87 7.87 12.63 13-4.15-.91-7.7-5.32-10.87-8.24v-.01zm4.54-5.46c.3.49.6.89 0 1.21-1.32.7-2.37-.92-3.69-1.84a39.553 39.553 0 01-6.78-8c-1.64-2.75-2.78-9 1.77-4.66 1.76 1.43 2 6.78 4.7 3.66 3.35-.88 5.08 4.44 7.46 6.17 5.42 5.67-.35 3.28-3.35.7-1.15-.66-3-3.11-4-2.91-.68 1.96 2.95 4 3.89 5.68v-.01zm-11.73-21.6c1.47-1.42 11.13 5.36 5.9 6.84-2.66-.3-4.57-3.29-5.84-5.38-.39-.64-.56-.99-.06-1.45v-.01zm-6.5-7.36c-.81 1.8-2.67-1.78-1.32-1.83a1.657 1.657 0 011.32 1.84v-.01zm-8.27-32.09c-.28-.8-1.28-2.21-.42-2.83 1-.29 1.53 1.31 2.07 1.94 1.14 1.92-.67 2.92-1.65.9v-.01zm1 16.2c-.65 4.3-2.35 2.62-3.8-.3-1.49-2.27-1.15-5.65-.3-8.12.44-1.37 1.89-1.74 2.7-.55 2 2.69 1.28 5.89 1.4 8.98v-.01zm.36-23c-1.06-.6-2.4-.11-3.49-.77-1.51-.7-1.49-3.82.62-3.35 1.25-.1 6 5.25 2.87 4.1v.02zm-2.75-6.58a51.454 51.454 0 01-8.33-11.79c-.75-5.89 5.28.15 6.72 1.91.84 1.18 1.79 2.18 1.44 3.4-.05.6-.55.3-.49 1.06a2.582 2.582 0 00.76 2.12c5.49 4.79 10.57 11.25-.1 3.28v.02zm-7 23.11c2.7-1.19 3.29 2.73 2 4.31-2.43 2.1-5.25-3.4-2.03-4.33l.03.02zm-1.5-11.37c-2.2-.17-2.45-4.11-.58-4.88 2.34-.7 2.73 4.69.55 4.86l.03.02zm19.73 2.09c2.39 1.3 3.65 5-.31 3.91-1.65-.65-2.79-2.22-4-3.49-.91-1.13-2.46-2.38-2.25-4 1.42-2.36 5.02 2.71 6.53 3.56l.03.02zm5 12a.823.823 0 01-1.28.32c-.71-1.06-6.89-6.77-4.63-6.67 1.64.3 3.47 2.46 4.7 3.65.69.94 1.58 1.65 1.19 2.68l.02.02zm.23 9.88c7 8.27-2 2.79-4.5-.76-3.63-6.01 2.87-1.43 4.48.74l.02.02zm12 2.22c-.65-.15-1.64-1.11-.54-1.4.67 0 3.43.61 2.55 1.62a4.773 4.773 0 01-2.06-.24l.05.02zm0 6c-.24 2.34-5.57 2.91-6.91 1.22-2.1-4.33 5.91-3.78 6.87-1.28l.04.06zm-.84-5c-1.07 1.74-8.77-1.6-7.16-3.56 2-.92 4.41 1.52 6.25 2.23.58.26 1.32.49.87 1.27l.04.06zm18.64-4.77c3.05-4.43 4.22 6.09 5.32 7.82 1.11 3.86 4 7.18 4.39 11.22.2 3.77-1.44 1.79-2.38-.23a62.767 62.767 0 01-4.05-5.77c-.57-.81-1.3-2.49-2.53-1.92a1.371 1.371 0 01-2.13-.11c-.92-2.39-3.44-4.26-3.29-7a1.165 1.165 0 011.14-1.373c.279 0 .549.1.76.283 3.65 6.52 1.34.15 2.73-2.98l.04.06zm0-9.64c.09-.73.7-1.82 1.55-1.49 1.54.91-1.55 3.94-1.63 1.43l.08.06zm3.9-7.54c.17 1.21-.26 2.54-.13 3.77 0 .22-.11.76-.34.62-.23-.14-.35-7.07.39-4.45l.08.06zm.38 15.28c.22-1.9 1.81 2.77 1.42 3.21-1.37 1.47-1.44-2.51-1.5-3.27l.08.06zm3.81-17.33c.27-.7 1.33-5.72 2.29-4.2.46.77-2.36 8.03-2.37 4.14l.08.06zm-11.73 5.92c.09 2.29-1.5 6.82-1.69 2.37.32-1.44.1-3.23.6-4.65 1.06-1.45 1.42 1.45 1.01 2.22l.08.06zm16.47 9.77c-.81-2.19-.29-4.62-.6-6.88-.15-2.49-1.4-5.21-.7-7.66 1.82-1.69 1.95 3.21 1.72 4.29a22.299 22.299 0 000 4.9c.37 1.33 1.18 2.66.9 4.09.06.88-.77 2.82-1.4 1.2l.08.06zm-.78-27.09c.39-3.61 1.86 2.06 1 3-.82.55-.98-2.56-1.08-3.06l.08.06zm-.48-16.71c1.34-2.17.89-6.22 2.26-7.94.77.9-.71 4.12-.76 5.47-1.3 4.85-2.53 9.76-4.07 14.54-.88 2.54-.34 5.35-.82 7.86-2 2.27-2.05-5-2.11-6 .5-4.91 3.7-9.32 5.5-13.93zm-6.24 4.38c-1.12.18-.83-1.84-1-2.62 0-3-.57-5.88-.54-8.83.89-5.65 3.1 10.89 1.49 11.45h.05zm-5 13c0-1.22 1.37-12.5 3.32-8.25a94.16 94.16 0 01-1.82 10c-1.08 2.86-1.95-.28-1.56-1.72l.06-.03zm-3.26 13.4c-.12-1.69 6.45-12.21 4.63-5.32a70.172 70.172 0 01-3.68 7.6c-.92 1.04-1.22-1.58-1.01-2.25l.06-.03zm-2.5-41.3c.06-.75.25-5.49 1.34-3.25.29 1.25-1.63 8.25-1.34 3.25zm-.5 35.28c.35-1.07 1.18-2.89 2.47-2.75 1 1.31 0 3.7-.83 5-1.8 1.58-2.33-.92-1.64-2.28v.03zm-44-48.76c.53-.45.46 0 1.05.53 2.26 3.08 6.84 2.52 10 3.06 6.33 1.55 12.26 3.88 18.55 4.56 4.24.78 9.46.75 12.4 4 .72.9.4 1.14.38 2.2-1.1 3.72-.69 7.87-.09 11.85.41 11.91-4 23.16-2.61 35-.82 5.1 1.26 10.48 3.19 15.17 1.19 2.73-1.73 4.92-3.43 2.25-2.12-3.67-5.54-5.63-8.71-8.18-5.32-6.83-11.81-15.24-12.94-24 0-1 .79-1.27.89-2.27.63-2.29-1.33-4.12-2.77-5.93-4.2-3.49-5.9-9.66-8.13-14.16-3.49-6-8.15-11.68-7.66-18.6.16-1.58-.93-4.29-.11-5.51l-.01.03zm-8.05 6.57c.79-.29 1.68 1.48.84 1.86-.84.38-1.66-1.52-.83-1.89l-.01.03zm-.64 5.91c3.44 2.06 6.84 5.95 10.38 8 .48.42.64.56.22 1.08-1.92 1.79-4.75-1.38-6.63-2.33-2.14-1.56-2.44-4.37-3.87-6.22-.18-.25-.65-.68-.1-.53zm1.3 23c-1.56.18-1.13-3-.44-3.68 1.38-.72 1.99 3.42.44 3.68zm-9.83-43.2c1.2-.93 2.52 2.46 1.28 2.61-.82-.22-1.78-1.86-1.28-2.61zm-.21 15.63c1.47-8 3.31-.66 3.72-4.06.62-9.5 3-3.09 3.82 1.81.47 2.13-.57 3.82-1.29 5.69-.15 1.24.52 2.68-.14 3.83-1.61 2.11-3.41-1.7-2.3-3.63.59-.72.38-4.44-.75-2.41-.97 2.71-3.7 1.34-3.06-1.23zm6.82 39.08c2.07 0 1.57 4.21 1.18 5.65-2.52 3.46-2.99-4.87-1.18-5.65zm-1.79-13.51c.95-1.57 1.33 2 .22 2-.79-.22-.39-1.43-.22-2zm-.42-6.45c-1.11 2.45-3.61-.43-3.47-2.21 0-1.53 1.43-3.27 2.92-2.29s.87 3.15.55 4.53v-.03zm-12.4-42.82c1.5-1.64 3.06 4.75.4 2.43a2.393 2.393 0 01-.4-2.4v-.03zm1.84 53.47c-1.25.71-.83-2.36-.5-3 .82-.99.99 2.66.5 3.03v-.03zm3-21.35c1.13-1.29 2.26 1.5 2.16 2.49a15.083 15.083 0 01-1.28 5.77c-.61 1.62-2.54 2.89-2.31.32.71-2.86.49-5.78 1.41-8.55l.02-.03zm0 17.77c-.34 1-1.76-.36-1.32-1 .66-1.08 1.78.1 1.32 1.03v-.03zm4.54 37.76c-.46-.62-.61-2.89.54-2.56.98.44.65 3.58-.54 2.59v-.03zm.5-7.82c-.75-.42-.23-2.11.69-1.73.87.56.37 2.17-.69 1.76v-.03zm-.31-20.32c-.06-.6-.61-1.68-1.29-1.06-.93 1.24.59 3-.31 4.42-1.47 1.81-3.31-2.74-3-3.95 1.33-2.36.55-5 .92-7.51.22-1 1.54-2.13 2.47-1.23 1.06 1.15.86 2.82 1.21 4.21.41 1.67 2.88 1.46 3.45 3.1.49 1.89 2.2 8.81-1.77 6.87-1.27-1.18-1.4-3.21-1.68-4.82v-.03zm6.75 26.23c0 2.17-1.81 4-3.44 1.75-1.05-1.63-.28-3.59.78-5 .94-2 3.13-4 2.79-.25-.35 1.11.47 2.44-.13 3.53v-.03zm.15-33.69c2.15.76 3.54 7.31.36 7.24-2.33-.77-3.76-7.36-.36-7.21v-.03zm1.17 37.22a1.45 1.45 0 012.67-.58c.77.75 1.83.86 2.55 1.6 1 1.17-.07 3.31.66 4.27 1.16 0 1.19-1.81 1.87-2.53 1.16-1.39 3.49-3.41 5.38-2.48 1.6.86 2.3 2.94 2.75 4.55.65 1.45 1.44 2.77 2.08 4.22 1.41 2.87 3.23 5.69 4 8.79-.05 1.85-2.21 1.73-3.15.54a5.68 5.68 0 00-3.39-2c-1.09-.06-1.93 1.05-3 .67-2.54-1.46-2.79-5.34-1-7.48.59-.73.87-3-.54-2.76-.86.55-1.33 1.73-2.43 2.06-1.1.33-2.91-.4-4-.82-.82-.75-.55-2-1.06-3-.35-1.09-1.43-1.2-2.32-1.54-1.13-.61-1.35-2.29-1.07-3.51zm2.37 11.67a.854.854 0 01-.848.795.854.854 0 01-.742-1.265c.3-1.2 1.79-.57 1.59.49v-.02zm-2 5.94c1.94-3.6 4.09 2.7 2 4.28-1 .84-1.73-.39-1.86-1.27a3.553 3.553 0 01-.16-2.99l.02-.02zm2.44 14.68c-3 .69-3.35-4.49-1.54-5.95 2.65-1.62 3.81 5.22 1.52 5.97l.02-.02zm.94 65.06c1.73 2.31 3.62 4.94 6 6.68 3.14 1.88 8.25 2.51 9.82 6.13.26 1.67-2.22 1.55-3.44 1.64-2.25.32-3.91-1.07-5.41-3-2.85-4.49-7.9-8.41-9.53-13.62 0-.23 0-.47.37-.24.94.44 1.39 1.44 2.17 2.43l.02-.02zm0 23c2.42 5.85-1.68 8.93-2.3 1.21 0-2.2-1.41-3.61-.82-5.68.24-.86 1.4-1.48 2.11-2.13.71-.65 1.42-1.05 2.2-.45 2.51 2.55 2.17 6.61 3.43 9.79.82 2.95 3 5.43 3.38 8.47.3 1.76-1.09 3.12-2.27 1.22-2.21-3-4.06-6.27-4-10.06.08-1.21-2.35-5.03-1.77-2.35l.04-.02zm-3.57-12.85c.64-3.49 3.74.66 1.67 2-.98.34-1.5-1.23-1.67-2zm-3.73-23.69c-.2-1.26-2.12-3.77-1.42-4.64 1.95 1.6 2.93 4.9 4.16 7 1.23 2.1 3.3 3.93 4.05 6.24-1.55 3.53-6.16-7.17-6.79-8.6zm-8.51 33.91a2.437 2.437 0 01-.44 2.95c-2.42 1.05-1.83-5.01.44-2.95zm-2-22.1c-1.89-1.15-1.75-4-1.65-6 .09-.76.05-1.45.82-1.68 3.19-.22 5.3 8.78.79 7.68h.04zm1.05 32.07c.77.08 1.07 1.05 1.28 1.78a13.302 13.302 0 011.09 3.87c-.51 1.9-1.84-.1-1.89-1.13-.28-.82-.91 1.29-1.67.57-3.11-2.9-2.2-10.8-4-15.13-.93-4.22-2.51-8.26-3.63-12.41 0-.59 0-1.24.74-1s1 .16 1.51 1.1c3.38 6.54 4.66 14.95 6.53 22.35h.04zm2.82 16.56c.42 1.6-1 2-1.93.71-1-1.62-1.9-3.58-1.65-5.45.98-2.07 3.36 3.78 3.54 4.74h.04zm3.68-31.89c.07 2.61-2.34 2.61-2.84.15-.28-1.52-.43-3.35-.8-4.75-.63-4.33 3.91 3.36 3.6 4.6h.04zm-.54 24.58c.55-5.27 4.14 5.57 3.06 6.56-.26.48-.84 1-1.31.42-1.87-1.78-2.12-4.59-1.79-6.98h.04zm6.3-58.22c.41-1 1.18 1.45 1.35 1.84.318.799.484 1.65.49 2.51-.82 1.73-2.01-3.71-1.88-4.35h.04zm1.83-18.24c.48-.17.65.32.92.72.32.86 1.65 2.28.86 3.11-.77.38-1.23-1-1.53-1.57-.3-.57-1.05-1.81-.25-2.26zm-3.78 1.88c1.44.83 4.72 4.07 4.17 5.65-.45.37-2.9-3.12-3.64-3.6-.74-.48-1.99-2.78-.53-2.05zm-5.22-.36c.37-.54.77-.33 1.17.13 1.84 3 4.66 6.71 5.35 9.9-.29.18-.36.31-.69-.1-.9-1-1.85-2.72-2.82-4-1.14-1.81-4.08-3.76-3.01-5.93zm-1.92 12c2.94 5.84 6.22 12.33 7.07 18.82.11.79-.71 1.14-1.43 1.16-3.12 0-3.14-4.29-3.88-6.5-.45-1.82-.65-4-2.14-5.33a10.713 10.713 0 01-5.39-5.87 3.272 3.272 0 011.75-4.06c1.6-1.06 3.11.34 4.02 1.78zm9.92 40c.08.5-.2.46-.35.27a23.589 23.589 0 01-5.44-10.15c1.55-5.23 6 8.36 5.79 9.88zm-16.43-50.31c.25-2.06 3.21-3.08 4.23-1.11.73 1.3.24 3.25-.35 4.5-2.12 2.01-4.36-1.29-3.93-3.41l.05.02zm1.12 37.92c1 3.1 3 6.3 2.45 9.62-.14.47-.26 1-.86.65-2.5-2.13-3.14-6.48-4.76-9.37-.67-2.73 2.19-3.45 3.12-.92l.05.02zm-10.61-40c3.89-2.87 4.91.75 6.28 3.61.66.82 1.53.95 2 1.85.465.888.66 1.893.56 2.89-.82.53-1.53 0-2.31-.62-1.5-2-4.27-2.48-6.56-3.12-1.82-.95-1.37-3.52-.05-4.65l.08.04zm-7.38.06c1.4 0 1.65 1.54 2 2.61.34 1.27 1.91 2 1.87 3.29-.41 1.44-1.83-.52-2.51-1-1.48-.8-4.4-4.52-1.41-4.94l.05.04zm-4.2 4.65c7.8 4 13.07 14.29 15.66 22.36.21.88.38 1 .18 1.81-3 4.41-5.77-7.33-7.1-9.42-3-4.68-6.45-9.25-9.34-13.91-.31-.77-.42-1.16.55-.88l.05.04zm15.07 101.89c-.24.83-1.83.11-2.52-.07-.92-.6-2.81-1.57-2.41-2.71 1.36-1.94 5.42.57 4.88 2.74l.05.04zm-5.28-22.49c-.53-.76-1-2.39-.09-3 1.26-.47 1.61 4.28.04 2.96l.05.04zm3.25-30.43c-2.65-2.14-2.21-6.86-3.12-10.23 0-2.06-1.74-7.11-.23-8.13.85-.5.73-.07 1.17.89 1.25 2.52 2.06 6.14 2.88 9.14a54.794 54.794 0 011.53 6.12c.05 1.26 0 1.94-1.28 2.07-.36.11-.49.61-1 .1l.05.04zm-9.55-13.39c1.23 1.17 2.21 4.29.34 5.17-1.36-.49-.92-2.52-1.32-3.67-.36-.95-.34-2.97.93-1.54l.05.04zm-.21-8.88c.31-1.59 1.67.66 1.41 1.41-.73 1.18-1.5-.77-1.46-1.43l.05.02zm-.65-3.82c-1.12.68-2.76-3.59-1.57-3.95.53-.2.76.23 1.05.69.32.85 1.53 2.45.47 3.22l.05.04zm.36 69.28c1.58.09 1.58 2.95-.14 2.68-1.75-.06-1.73-3.07.09-2.72l.05.04zm1-23.7a1.553 1.553 0 01.66-1.67c2.33-.55.78 4.73-.67 1.63l.01.04zm1.51-42.09c-1.17.9-2.76-5.46-1.2-4.4.99.57 2.6 3.79 1.2 4.4zm-7-3.7c1.41-.08 1.64 3.37 2.26 4.47.22 1.62 1.88 4.11 1.1 5.46-1.11-1.15-1.33-3.31-2.06-4.84-.59-1.63-1.99-3.51-1.39-5.08l.09-.01zm-1.07 27.33c.65 1-.14 6.12-.84 6.64-.85.04-.62-8.96.75-6.64h.09zm.43 25.32c.27 1.76-1.37 1.82-1.46.15-.23-1.91 1.3-2.19 1.37-.15h.09zm-2.5-36.25c.34-3 2.18 3.72 1 4-1.22-.65-1.11-2.79-1.09-4h.09zm.41 51.69c.81.13 1.07 1.85-.06 1.66-.88.06-.98-1.74-.03-1.66h.09zm-1.72-19.84a18.123 18.123 0 01-1.62 7.26c-.92-1.92-.54-5.46-.15-7.79.45-2.18 1.82-1.3 1.68.53h.09zm-.18 13.32c-1.47 3-3.32-2.68-1.71-3.7 1.34-.46 1.48 2.77 1.62 3.7h.09zm-2-22.33c.18 1.36-.95 7.22-2.22 3.37-.81-2.68 1.11-6.93 2.16-3.37h.06zm-.67 32c-1.32 1-2.09-2.51-2.5-3.36-.41-.85-1.45-3.85.39-2.76.62 1.31 2.73 4.89 2.05 6.15l.06-.03zm-1-42.7c-1.55-.18-.58-3.88.79-2.81a1.79 1.79 0 01-.9 2.84l.11-.03zm-1.53-111.8c2.06-2.91 2.09 7.38 1.65 8.3-1.35 1.6-1.05-1.85-1.15-2.61-.15-1.86-.99-3.79-.61-5.66l.11-.03zm-2.43 56.46c1.27 1 2.45 2.75 1.81 4.41-.35 1-1.25 1.7-1.56 2.75-.43 4.46 2.53 8.84 2.15 13.36a1.205 1.205 0 01-1.194 1.323 1.204 1.204 0 01-1.176-.963c-.78-2.24-1.33-4.57-1.91-6.89-.44-2.8-.77-5.65-1.44-8.41-.28-1.79-3.41-8.53-.22-8.4.84.6.33 2.26 1.43 2.66.67.3 1.3-.38 2 .19l.11-.03zm-7.7-15.7c-.62-1.88-1.68-3.75-1.47-5.7.86-2.61 2.72 3.6 3.16 4.46.86 2.38 2.22 4.63 3.24 6.91.87 1.8 0 3.7-1 3-1.97-2.55-2.72-5.7-4.04-8.64l.11-.03zm.7 4.83c-1.25-.2-1.26-2.38-1.66-3.33-.13-.36-.45-.76 0-.89.87 0 1.05 1.7 1.52 2.34.02.56.74 1.71.03 1.91l.11-.03zm1 17.57c1.21.15 1.1 2.9 1.67 4 .24 1.58 1.5 5.83.19 6.53-2.34-2-2.41-6.21-2.39-9.13-.12-.6-.29-1.29.4-1.37l.13-.03zm3.24 30.32c1.77 0 2 3.52 1 4.59-2.47.87-2.59-3.65-1.13-4.56l.13-.03zm2 39.54c.2-.27.48.17.4.58-.23 1.28-.16 3.48-.76 4.56-.93.2.13-3.97.23-5.11l.13-.03zm-1.59-144.14c1.68-.53 1.63 2.7 0 2.11a1.181 1.181 0 01-.13-2.08l.13-.03zm-2.1 9.33c1.31 1.16 1.18 3.83-.88 3.91-1.47.21-2.35-1.73-2.27-3 .06-1.36 2.17-2.22 3.02-.85l.13-.06zm-3.64-41.6c1.2-.56 1.76 1.35 2.22 2.13.11.48.75 1.48.39 1.83-1.37.01-3.93-2.79-2.74-3.93l.13-.03zm-3.41 11.32c.67-1.93 2.07.15 2.76.82a.898.898 0 011.26.74.502.502 0 01-.78.49c-.17 0-.31-.27-.31-.06-.32 3.52-3.82.07-3.06-1.96l.13-.03zm3.38 18.8c-.57.54-.69.29-1.22-.49a37.355 37.355 0 01-4.53-14.62c.9-5.24 7.67 14.14 5.62 15.14l.13-.03zm-8.25-40.65c-1.39 1.89-1.7-3-1.67-3.82.3-2.47 2.13 3.22 1.54 3.85l.13-.03zm-2.37 14.81c1-.13 2.24 2.82 1 3.16-1 .12-2-2.84-1-3.16zm-7.71-18.34a11.006 11.006 0 012.23-5.19c.33-.33.44-.29.51.17-.16 1.64-.15 3.5-.47 5.2-.83 2.22-2.56 2.76-2.31-.18h.04zm-.29 6.53c.67.09.53.22.6 1.18.3 2.38.34 5.68.62 8.15.42 3.88 4.22 5.39 5.69 9a125.686 125.686 0 006.4 15.74c1.34 3.19 3.34 6.84 4.22 10.11.38 1.45.06 1.74-.83 2.39-.89.65-1.48.24-2.14-.55-1.87-2.78-1.32-6.56-3.38-9.4-1.77-2.6-1.86-5.52-3.06-7.53-.86-.68-2.12-.63-2.69-1.8-.57-1.17-.49-2.92-.93-4.28-.44-1.36-2-1.84-3-2.83-1.63-4.54-3.4-9.61-3-14.54.37-1.59-.05-5.08 1.5-5.64zm12.95 52.48c.11.81-1.51 1.69-1.58.5-.09-.65 1.35-1.28 1.54-.5h.04zm-2.76-11.75c-.59 1.72-2.51-1.58-.61-1.31a1 1 0 01.57 1.31h.04zm-2.31 54.62c0-1.33-.86-2.95.06-3.93.42-.39.56-.09.72.42.08 5 2.74 11 .49 15.77-.54.71-.8.57-1.12-.28-1.58-3.84.11-8.14-.19-11.98h.04zm1.51-20.74c-.89 2.77-.51 7.71-2 9.84-.67.46-.77-.19-.87-.85-.24-3.94.07-9.42 2.38-12.67 1.44-.74.46 2.64.45 3.68h.04zm-3 69.41c-1.37 1.23.39 4.46-.29 6.86-1 4.62-1 9.42-1.52 14.1-1 2.24.06 4.34-.49 6.57-.81 1.52-2 .55-2.06-.78-.7-1.19-1.7-2.21-2-3.65-.5-5.57-1.09-11.5 1-16.82a18.905 18.905 0 012.47-5.8c1.09-.47.67-1.52.77-2.56 1.22-4 3.32-.2 2.05 2.08h.07zm.2 59.75c.07 1.55-.75 1.51-1.44.33a15.318 15.318 0 01-1.09-6.53c1.46-2.25 2.57 5.24 2.46 6.2h.07zm-14.59-94.32c-.37-1.64-1.16-4 .45-5.22.83-.57 1.53-.56 2 .55 1.19 3.75-.06 8.26-.67 12-.53 1.62-.6 4.54-2.66 4.39-.88-.11-1-.83-.94-1.67.31-3.39 2.67-6.48 1.82-10.05zm1.5-21.93c1.11-1.9 3.05.7 3.39 1.86.17.43 1.16.56 1.72 1.3.49.42.78 1.37 1.41 1.35.38-.08.26-.64.79-.6 1.45-.11 1.83 1.73 2.45 2.88 1.28 2.52 2.64 6.31 1.18 8.84-.35.52-2-3.21-2.4-3.62-.39-1-.42 0-.63.22-1.73 2.6-3.13-1.64-3.9-2.92a57.884 57.884 0 01-3.45-5.87 3.584 3.584 0 01-.59-3.44h.03zm0-9.52c-.06-.64.38-1.83 1.2-1.57 1.76.57-.79 3.52-1.27 1.57h.07zm6.94-11.56c.43.86-1.23 3.53-1.87 2.3-.35-.83.99-3.73 1.8-2.3h.07zm2.85 68.69c-2.17-.85-.67-8.73 1.75-7.56 2.57 1.35 1.05 8.2-1.82 7.56h.07zm.33 7.24c0 1-1.27 3.79-2.43 3.27-2.05-2.92 2.81-12.33 2.36-3.27h.07zm2.28-29.26c-.52 2.64-3 .88-2.68-1.08.088-1.508.319-3.005.69-4.47.13-.65.08-1.42.85-1.31 1.56.94 1.24 5.1 1.07 6.86h.07zm-1.76-28.15c-1.94 1-.9-3.53.4-1.36a1.352 1.352 0 01-.47 1.36h.07zm.18 5c.08 2.89-2.61 1.81-2.08-.49.23-1.46 2.24-.89 2.01.49h.07zm-.18-15.77c-.38 1.72-2.35 2.8-2 .33.51-1.31 1.22-3.6 2.66-3.9.82.16-.61 2.85-.66 3.57zm-7.28 29.71c-.89-.87-2-3.24-.37-4 .74-.32.93.52 1.34.82.47 0 1-.61 1.44.06.34.5.86.55.9 1.52a36.511 36.511 0 01-4.31 17.92c-.51 1.45-1-.09-.64-1a62.347 62.347 0 001.78-14.77c.05-.75 0-.26-.14-.56v.01zm-1.86 24.86c-.41 1.1-.8 3.62-2.13 3.87-.78-.21 1.2-3 1.33-3.61.15-.9 1.32-1.57.8-.26zm-4 14.68c-.63-1.48 10.54-24.93 10.11-17.28-.31 3.12-1.12 7.07-3.29 9.52-1.25 1.15-2.73 1.63-3.49 3.18-1 1.76-1.06 3.91-1.85 5.66-.26.47-.46 1-1 .53s-.77-.52-.48-1.61zm7 3.59c-.62 3.61.07 7.53-1.22 10.91-.32.67-.71 1.21-1.48 1.08-3.69-1.74-1-7.93-1.29-11.28 1.15-8.05 5.67-12.69 3.99-.71zm-6.27 34.5a89.592 89.592 0 012.5-10.84c.67-2.26.62-5 2.3-6.78 1.05-.56 1.36 1.09 1.43 1.84a21.003 21.003 0 01-1.09 9.73c-1.44 3.94-1.34 8.76-3.33 12.43-2 1.45-2.08-5.2-1.86-6.38h.05zm5.72-2c.2-2.27-.22-4.58 1.35-6.44.25-.28.14-.3.42-.23 1.3 1.28 1.31 3.86 1.54 5.76.73 8.57-4.19 11.79-3.36.88l.05.03zm-1.45-204.6a10.994 10.994 0 011.09-3.08c1.86-3.53.59 3.61-.33 4.32-.92.71-1.08-.68-.76-1.24zm1.63 56.26c1.93 1.34 2.94 4.4 4.41 6.64 1.75 3.93 2.52 8.58 3.16 12.75.09 2.25 1.82 4.89.22 6.89-2.28 1.38-1.82-2.55-2.37-3.67-.83-1.34-2.63-2.14-3.05-3.78-.66-1.82-.85-3.68-1.48-5.51-1.65-4.49-3.09-9.18-2.85-14 .33-1.73 1.65-.18 1.96.68zm-10.63 54.77c.24-5.78 3.14-11.06 2.94-17 1.22-3.07 1.27-6.4 2.41-9.45 1.23-3.35 2.59-6.65 2.27-10.43-.08-2.55-.47-5.91-.11-8.2.07-.87 0-1.12.71-1.22.71-.1.63.43.8 1.09 1.79 6.84 2.41 14.84-.46 21.47-1.37 3.36-.74 6.93-1.88 10.42-3.22 5-3.22 11.15-5.38 16.74-1.19 2.65-1.56-1.87-1.3-3.42zm1.25 97.57c-.22 1 .52 9.23-1.37 7.48-1.34-3.59-.07-7.75 0-11.51.43-1.12.36-4.5 1.35-4.57.31.12.38 0 .38.55-.05 2.29-.61 5.71-.4 8.05h.04zm-9.86 4.87c.28-4.22 2.06-8.86 1.4-13.15-1.86-2-2.87-4.43-1.41-7 1.83-2.41 2.37 1.41 4.16 1.11 1.21-.07 2-1.53 2.74-2.42 3.81-3.79 1.81 3.52 1 5.17a66.104 66.104 0 00-4.82 16.95 10.37 10.37 0 01-1.11 2.39c-.1.53-.36 1.61-1.16 1.55-2.1-.81-.45-3.13-.84-4.6h.04zm-1.45-44.46c-.42-1.41.62-4.88 2.49-3.61 2.92 1.71-1.07 7.97-2.53 3.61h.04zm10.91-23.42a55.917 55.917 0 01-4.59 8.61c-.42.7-.74 1.45-1.47.86s-.35-1.4-.05-2.29c1.1-2.76 2-6 3.36-8.63 1.72-3.05 3.9-1.72 2.71 1.45h.04zm.15 17.87c0 .92-1.16 4.18-2.29 3-.97-1.2 1.54-5.81 2.29-3zm-12.74-35.61c1.15-1.58 2.64-2.24 1.53.22-.98 2.19-3.69 2.52-1.57-.22h.04zm1.24 3.71c-.08 2.33-1.9-.49-.92-1.3.57-.41.91.85.88 1.3h.04zm-5.7 12.12c0-2.46 10.73-20.53 9.8-10.71 0 .5 0 .2.15 0a4.047 4.047 0 011.75-1.91c1 .14.92-1.4.95-2.27-.42-2.28-1.63-7.86 2.39-7 2.32 1.36-.15 4.78-.77 6.76-1.05 3.61-1.66 7.6-3 11.24-1.05 3.72-2.43 7.38-3.65 10.93-.53 3 .6 6.83-2.33 8.85-1.86 1.55-1.61-2.29-1.41-3.5.59-7.55 6.22-14.52 7.72-21.55a18.119 18.119 0 01-3.57 5.17c-.72.9-1.74 3.42-3 2.1-.32-.31-.28-.89-.79-1-2-.51-2.51 5.11-4 4.34-.52-.5-.53-.68-.28-1.45h.04zm5.37 46.07c0 .77-2.39 4-2.16 1.83.06-1.24 2.43-4.67 2.12-1.83h.04zm-3.17-12.2c-.18.82-.18 2.48-1.18 2.51-1.77-.49.62-5.71 1.18-2.51zm-1.5 8.4a1.86 1.86 0 011.233-.467 1.869 1.869 0 011.847 2.077 5.133 5.133 0 01-3 3.15c-1.94-.38-.98-3.71-.1-4.76h.02zm-4-9.66c-.29 1.07-1.46 1.69-1.55 2.78-.35 1.5-.86 4.7-2.88 4.38-1.92-1.54.32-5.66 1.38-7.32.87-.98 3.05-2.11 3.04.13l.01.03zm-1.56 33.17c-1.19 0-1.35-1.86-.56-2.43 1.23-.27 2.53 2.5.55 2.43h.01zm.71 3.49c0 1.46-4.09.42-4.09-.65.72-1.13 3.75-.79 4.08.65h.01zm.18-9.16c-.78-1-.79-3.74.94-3.56 1.79.64 1.09 6.54-.95 3.56h.01zm-4.58-34.69c-4.51-.27.5-7.24 2.84-4.15a2.842 2.842 0 010 4.75c-.9.15-1.75-.79-2.85-.6h.01zm2.51-39.84c1.06-.73 2.38 3 2.36 3.88-.55 1.89-2.9-3.18-2.36-3.88zm.24 26c2.61-7.41 2.53 2.35.6 4.2-.2.28.15.36.14.63a1.295 1.295 0 01-1 1.36c-1.51 0-1.14-1.56.08-1.91.17-.11.21.22.09-.26a5.804 5.804 0 01.09-4.02zm-1-36.76c-.6 2.18-3.74-.64-3.37-1.95.83-1.56 3.7.71 3.42 1.97l-.05-.02zm.08 19.17c1.09 2.5-1.45 7.13-4.47 6.57-2.22-.57.05-3.28.31-4.73.61-1.42 2.96-3.45 4.21-1.82l-.05-.02zm-5.22-.75c.31 1.46-2.81 3.76-2.74 1.45.31-.65.54-1.12.83-1.76.46-.81 2.05-.91 1.96.33l-.05-.02zm-7.23-25.33c2.62 1.29 5.58.44 6.66 3.28.76 2.36-1.11 1.93-2.48 1-1.26-1.17-3.21-.41-4.52-1.41-2.16-1-2.99-4.06.39-2.85l-.05-.02zm.73 14.27c-.06 3.15-3.56-3.64-3-4.53.32-.5.86.36 1.09.62a11.542 11.542 0 011.96 3.93l-.05-.02zm-5.16-21.15c.73 0 1.67-.35 2.25.4.58.75-.35 1.81-.91 1.68-.56-.13-2.12-1.46-1.29-2.06l-.05-.02zm-.9 34.26c1.28-2.52 7-2.57 4.45 1.1-.89 1.64-5.44 1.37-4.4-1.08l-.05-.02zm-11.23-60.71c.11-.42.59-.26.85 0 1.8 2.53 4.81 4.94 5.58 7.91.95 2.07 3 3.82 3.22 6.19-.8 5.18-10.9-12.56-9.65-14.1zm3.56 51c1.26-3.09 1.43 2 .1 1.49a2.004 2.004 0 01-.1-1.49zm-.11-26c-.67-1.24-3-6.57.29-4.76 1.71 2.61 3.87 5.66 4.38 8.76-1.29 3.9-4.09-2.55-4.67-4zm1.1 11.07c-.72-3.62 5.12 7 2 4.54-.75-1.48-1.37-3.1-2-4.61v.07zm2.35 7.65c1.15-1.3 1.72.56 1.74 1.58 0 .78 1 2.51-.07 2.76-1.02-.44-2.47-3.38-1.64-4.39l-.03.05zm-5.61-7.38c-1.16.1-1.44-2.47-.13-2.18.58.36 1.01 1.84.13 2.13v.05zm.4 18.67c0 .56-.62 1.61-1.22 1-1.48-1.22 1.2-3.53 1.22-1.01v.01zm-21.16-81.01c1.28-.65 5.43 2.5 4.08 3.92-1.13.63-2.26-.57-3.39-.74-.67-.63-1.51-2.41-.69-3.18zm-26.23-35.1c5 1.26 8.88 10.08 7.49 13.92-.62.45-3-5-3.51-6.45-.51-1.45-4.1-5.29-5.11-6.32-1.01-1.03-1.17-1.64 1.13-1.15zm-9.21 3.32c-5.68-3.12 1.12-4.32 3.84-2.38 3 .46 18.56 22.27 7.94 11.76-3.03-3.77-7.21-7.9-11.78-9.38zm13.57 23.23c-.1-2.4 1.88.57 2.1 1.41.25.65 2.27 3.55 1 3.44-1.49-.95-2.4-3.3-3.1-4.85zm5.52 18.72c-1.7 1.85-3.39-6.11-1-3.28.46.97 1.3 2.19 1 3.28zm5.29-6.49c2-.12 4.49 9 1.2 4.24-.47-1.21-2.25-3.1-1.2-4.24zm4.4 25.37c-.37-.71-2.45-3-2.48-3.5.61-.15.9-.53 1.53.28.64 1 1.57 2.62 1.49 3.7-.24.26-.15.08-.54-.48zm.71-13.26c-.9.45-1.52-1.58-.85-2 .72-.2 1.44 1.55.85 2zm.58-17.62c-.76 1.36-3.55-.89-3.12-2.1.78-1.57 3.57.87 3.12 2.1zm5.6 28.33c-.08-.42-.94-.85-.53-1.28.65-.51 1.11.51 1.61.63.75.63 2 2.43 1.84 3.37-1.36 1.44-3.16-1.41-2.92-2.72zm5 10.28c-.82 1.8-2.77-1.58-.82-1.58a1.232 1.232 0 01.78 1.58h.04zm1.34-15.11c-3.2-1.37-4.55-6.54-6.56-9.25-.36-.69-.57-1-.16-1.51 1-.84 1.69 1.37 2.41 2.08 1.36 2.38 4.07 5.19 4.87 7.82.15.7.09.9-.6.86h.04zm.87-9.86c-.83-1.14-2-2.38-2.29-3.73.12-.43.15-1.15.72-1.08.94-.13 1.79.72 2.5 1.33.88 1 2.21 1.72 2.52 3.08.23 2.09-2.63 1.65-3.49.4h.04zm1.67 5.76c2.22 2.17 3.5 5.71 4.78 8.57.16.83 1.64 3.08.65 2.86-.63-.16-.76-.65-1.17-1.34-1.32-3.16-4.33-6.89-5-10.13.03-.53.36-.26.7.04h.04zm-.28 10.83c-.07-1.47 1.54-1.29 2.15-.3 1.41 1.92.75 4.87-1.56 2.13a3.397 3.397 0 01-.63-1.83h.04zm5.9 21.88c-1.63 1.28-3-3.69-3.69-4.81-.69-1.12-1.48-4.26.79-3.87 1.34.86 1.46 2.78 2 4.14.23 1.46 1.23 3.04.86 4.54h.04zm-.49-9.84c0-.48.41-.34.55-.17 1.26 1.89 3.34 3.7 3.87 5.81-1.65 2.98-4.95-4.25-4.46-5.64h.04zm.17 47.47c.59-2.46 2.57-3.29 1.86 0-.45 1.5-2.31 2.19-1.87 0h.01zm-1.45 7.69c.79.61.54-2.06 1.49-2.26 3.78-1.15 6.82-4.86 11-4.5 1.16.08 2.7 3.43 3.79 3.66 2.29.44 3.94.95 6.12 1.21 1.1.57 2.87 1.38 2.4 2.69.94-.22 2.34-1.4 3.44-1.89.58-.36 1.79-.77 1.82.26-.16 1.09-3.53 4.34-.28 2.75a.589.589 0 01.85.46c-.57 3-5.13 2.47-7.36 1.8-.71-.3-.34-1.11-.81-.72-1.13.72-1.93 2.05-3.19 2.83-3.55 3.07-3.91-1.53-6.24-2.83-1.34-.27-3.06 1.67-1.38 2.2.65.37 1.32.16 2.17 1 .85.84 1.79 4.24 2.53 5.15 1.29 1.28 2.19 2.06 2.55 3.76.47 3.18-1.86 1.87-2.7-.4-.5-1.08-1.13-4.66-1.87-5.66-1.85-2.1-4.37-2.77-7-3.16-2.87-.61-2.27-2.59-1.89-4.68a2.119 2.119 0 00-3.6-.84c-.61.65-.77 1.76-1.69 2a5.23 5.23 0 00-.56 0c-.05-1.35-.09-3.19.37-2.83h.04zm24.84 49.63c1.12-.79 2.1 2.31 1.51 3.17-1.43 1.33-2.61-2.3-1.55-3.17h.04zm-1.14-33.88c-.41-2.28 2.74-5.23 2.71-1.38.1 1.6-2.22 3.88-2.75 1.38h.04zm-6.63 22.1c0-.71 1-2.59 1.59-1.2.25.84 0 4-1.35 3.19-.42-.58-.06-1.36-.28-1.99h.04zm2.64 26.15c-.53.29-.55-.67-.71-1-.48-2.15-1.47-4.44-1.24-6.67 1.49-4.11 3.01 7.61 1.91 7.67h.04zm-3.94-20.83c0 .81-.42 2.24-1.49 1.63-1.64-1.33 1.21-4.98 1.45-1.63h.04zm-9.24 5.15c-2 .36-1.86-3.07-2.56-4.36-.66-1.55-1.22-4 .78-4.68 3.24.12 4.91 7.75 1.74 9.04h.04zm-.17-16c1.3-2.24 3.87 1.91 2.75 3.41-1.67 3.55-3.43-1.73-2.79-3.39l.04-.02zm2.68 13.86c.71 0 .83 1.16.23 1.39-1.67.4-1.67-1.02-.27-1.37l.04-.02zm-8.4-41c1.73.35 10.46 12 5 10.09a8.245 8.245 0 01-4.9-3.79c-.84-.94-2.29-1.32-2.81-2.46l-.14-1c.24-1.28 1.65-3.22 2.81-2.8l.04-.04zm-2.84-15.47c-.08.34.28.28.36.54.287.564.11 1.26-.41 1.62-1.41.52-1.63-1-.62-1.8.11-.17.27.12 0-.28a5.844 5.844 0 01-1.42-3.76c-.34-7.81 3.17 1.3 2.05 3.72l.04-.04zm-28-37.51c2.54.29 4.86 1.93 6.79 3.51 1.86 1.32 1.09 2.57-1 1.44a39.698 39.698 0 00-7.15-3.38c-1.38-1.14.1-1.89 1.36-1.53v-.04zm-8.43 1.2c7.16-1.11-2.78 3.29-4.67 3.28-4.62-.69 2.54-3.28 4.67-3.28zm-8.51-.81c.65-.4 5.4-2.5 4-.45a8.999 8.999 0 01-4.2 2.29c-1.38-.03-.61-1.45.2-1.85v.01zm-.87 2.76c2.47-.05-1.72 3.28-2.57 3.5-4.35 1.39 1.27-3.24 2.57-3.51v.01zm-6.38-1.06c.41.76 1.39 1.5 1 2.56-.39 1.06-2.09.76-2.3.11-.21-.65.13-3.16 1.3-2.68v.01zm-1.43 8.38a16.005 16.005 0 014 4.05c1.35 3.92-5.68-3-5.46-4.37.08-.75 1.08.05 1.46.31v.01zm-3.74-2.84c-.55.36-1-.46-1.28-.85-.86-2.01 2.2-.09 1.28.85zm-.7 8.24c.57.36.31.89.07 1.5-.59 1-1.28 3.3-2.78 2.82-1.5-.48 1.55-5.23 2.75-4.32h-.04zm-.48 4.46c.18 1.4-1.79 5.25-3.4 4.28-1.66-.49 3.35-6.54 3.44-4.28h-.04zm-5 4.46c-1.65.21-.33-1.92.36-2.36 1.76-.84.55 2.08-.36 2.36zm-1.5-12.54c.7 0 .16 1.1 0 1.51a13.989 13.989 0 01-2.82 4.4c-3.25 1.89 1.56-5.96 2.82-5.91zm-4.22 18c1.15-.13 1.18 1.75 0 1.67-1.05.17-1.05-1.66 0-1.63v-.04zm1.1 20.09c-.64.38-2.06-1.66-1.38-2.12.68-.46 2.04 1.7 1.38 2.16v-.04zm-1.31-24.56c.32-1.9 2.26-3.65 3.22-5.45 1.21-1.63 2-4.32 4-4.87 1.08 1.31-2.09 4-2.72 5.37-1.39 1.37-2.64 4.78-4.5 4.99v-.04zm8.78 49.73a9.422 9.422 0 01-.53-6.58c3.8-3.1 6.49 17.41.53 6.62v-.04zm14.63 18.17a8.303 8.303 0 01-6-6.57c-.72-2.95 3.53.61 4.51 1.08 1.65 1.28-.52 2.69.76 4.16.36.54 1.12.37 1.21 1 .02.3-.13.35-.48.33zm5.3-2.32c.89-.23 2.71.47 2.39 1.55-.69 1.17-3.99-.71-2.39-1.55zm10.51 10.84c-1-.4-5-3.82-3.19-4.49 1.81-.67 7.22 5.16 3.19 4.49zm-14.43-28.77c-2.15-.69-5.38-2.07-5.42-4.76-.54-1.57 4.31-5.19 3.81-2.25a9.39 9.39 0 01-1.27 2.35c-.8 2 2.31 1.14 2.85-.06 2.14-2.86-.09-6.06-.73-9-1.58-10.95 11.51-19.49 3.09-22.2-2.38.42-2.92 0-5.05.76a36.711 36.711 0 00-3.38 2.7c-2.25 2.81 0 11 .06 14.5 0 1.62 1.43 5.1-1.33 4.61-.69 0-1.26-.8-2-.52-1.1.43-3.17.22-3.73-.63-.28-.25-.07 0-.39-.27-1.41-.8-2-1.88-2.94-2.67a17.596 17.596 0 01-3.06-4.74 4.515 4.515 0 01-1.79-4.05c.14-.51-.1-.31 0-.5a10.01 10.01 0 001.6-2.69 3.51 3.51 0 000-3.21 8.924 8.924 0 01-.72-3.7c.45-1.71 2.21-2.19 3-3.69.72-1.77 1-3.65 1.75-5.56 1.87-6.32 9.76-7.92 15.19-7.2a2.86 2.86 0 002.07-1.77 26.617 26.617 0 013.74-11.44c6.78-5.74 16.54-1.65 22.4 3.67 1 .88 2.39 1.92 3.36 2.7.8.64.25.37-.39.8h-.4c-.33 0-.66.06-1 .13l-.53.16a2.194 2.194 0 00-.52-.1 28.15 28.15 0 00-6 .29l-.32.07h-.54c-.54.053-1.075.146-1.6.28a4.712 4.712 0 00-1.43.46c-.33.17-.62.41-.93.61a6.129 6.129 0 00-2.1 2 3.334 3.334 0 000 3.53c.325.468.723.88 1.18 1.22.61 1 1 1.24 2.83 1.66 1.83.42 2.62-.8 4.27-1.1.65-.08 4.57-2.25 5.43-2.31 1.58-.33 3.11-1.19 4.54-1 .5-.21.75 1 1.26 1s.55 1.39 1.35 1.18c1.92 1.17 2.57 6.91 2.69 9.63-.15 5.4.91 3.26-3.06 16.25-.12.15-2.57 3.82-2.5 5.54.08 2.19 2.87 3.73 3.11 4.69.42 1.67-2.82 2.12-4.13 3.07-1.31.95-.58 2.12.19 3 .77.88 1.49.45 2.26.08.77-.37.69-1 1.36-1.35a7.153 7.153 0 012-.86 10.272 10.272 0 003.22-1.34 14.295 14.295 0 012.23-1.56c.24-.055.49-.055.73 0 2.82 2.31-2 6.68-5 7-6.52 1.62-12.65 4.83-18.78 7.38-6.57 1.75-14.21 2.15-20.53-.79zm45.32 11.43a1.672 1.672 0 01-1 1.27c-.69.29-1.07-.65-1.48-.71-.52 1.28-2 1.41-2.55-.1-.61-1.69.73-3.86 2.37-2.56 1.79-2.18 2.79.09 2.66 2.1zm-22.15 20.87c-.73.12-2-1.2-1.21-1.8.97-.67 2.3 1.33 1.21 1.8zm.63-18.91c-.93-2.69 4.51-5.92 5.66-2.9.42 1.27.22 2.92.48 4.22.13 1 .53 2.11-.4 2.68-.51.41-1.44.14-1.4-.58.41-1.28.09-2.89-1.65-2.65-.91.32-2.37.68-2.69-.77zm2.08 4.17c1.93-.37 1.52 8-.37 3.69-.61-1.06-1.36-3.25.37-3.69zm7.84 18.91c-4.59 1.82-6.17-5.58-7.5-8.49-.47-2.53-.55-3.12.07-3.32 3.24 1.41 5.58 6.41 8 9.36.64.99.61 1.85-.57 2.45zm15.74 8.09c-.57.55-2.1 1-2.55.37-.41-.4-.51-1.15-1.09-1.27-.57.24-.37 1.15-1.48 1.1-2.45.42-4.22-1.55-5.38-3.5-.21-.33 1.26-.05 1-.37-1.41-1.34-1.63-2.9-2.14-4.65-2.09-3.42-2.2-7.95-4-11.3-1.6.37-2.56-2.16-.5-2.16.42 0 .59.39.86.54.55.13 1-.6 1.63-.71 1.72-.39 1-5.45 3.3-2.74.83 1.62 1 3.38 1.73 5.07.33 1.12 2.16 3.32.74 4.12a4.651 4.651 0 00-2.5 2.63c-.23 1 .49 1.82.79 2.67.09 1.62-.34 2.68 1.27 3.82l.74.74c.29.29-.86.39-.62.65.66.93 1.53 1 2.44 1.39.32 0 .6.66.85.4-.06-1.45.28-3.52 2.16-1.82 1.22 1.12 3.81 3.15 2.75 5.02zm1.91-8.64c-1.76 1.48-2.6-2-4.31-2.09-.5.84-1 1.79-2 2-1.46-.1-3.08-2.18-2.67-3.58.65-1.29 1.89.43 2.2-.43a87.953 87.953 0 01-1.83-11.42c.19-3 2-.89 1.87 1.16a30.107 30.107 0 002.43 9.49c.33.52.94 0 1.2-.36 1-1 .14-2.44.2-3.67 0-1.94-1.86-3.38-2.28-5.14.35-1.15-1-9.58 1.32-7.38 1.34 4.32.65 9.39 3 13.4.9 1.61-1.61 1.72-1 3.29-.07 1.94 3.45 2.72 1.87 4.73zm1.79-6c-1.16 1.18-2.22-1.14-2.31-2.1 0-.22.72-.84 1.19-1.26.86.68 1.88 2.31 1.12 3.36zm5.63 19.26c-.19.36-.17.31-.65.17a6.513 6.513 0 01-4.14-4.3c.85-2.71 5.65 2.52 4.79 4.13zm4-20.92c.29 1.27.23 3.1-1.54 2.29-.81-.7-1-1.91-1.49-2.92-1.94-5.06 2.66-2.44 3.04.63h-.01zm1.35 23c-.92-2.34-4.32-4.78-3.42-7.38 2.05-.31 2.59 3.56 3.74 4.88.81 1.45 2.63 2.23 3 3.94.18 1.15.94 2.14.8 3.27-1.15 2.94-3.51-3.7-4.11-4.69l-.01-.02zm3.81-35.78c-.09-1.19-.12-5.13 1.63-4.8 1.64.52-.44 7.74-1.62 4.82l-.01-.02zm1.6 17c-.41-1.41-1.65-3.34-.43-4.66.21-.21.27-.16.43.05.84 1.38.49 3.17.64 4.72.53 1 4.13 6.8.61 5.2a14.23 14.23 0 01-1.24-5.3l-.01-.01zm4.24 11.2c-.94.66-2.79-1.13-1.85-2.1.91-1.14 2.9 1.35 1.86 2.11l-.01-.01zm.61-60.58c-2.69-.19 1.15-4.65 1.91-1.71.18 1.05-1.08 1.73-1.9 1.72l-.01-.01zm2.92 23.26c-1.28-.75-2.18-3.68-1.92-5.07.8-1.52.77-3.87 2.27-4.83 2.5-.44 3 4.32 2.08 6-.37 1.39-.67 3.97-2.43 3.9zm1.3 10.27c-1-.32.13-3.24.82-2.17-.04.58.02 2.31-.82 2.17zm1.35 30.9c.36-.27.32-.16.57.1a10.172 10.172 0 011.55 5.86c-.99 2.78-4.14-5.25-2.12-5.96zm7.14 9.18c-3.45 4.3-6.93-8-2.89-7.72 2.89.98 4.79 4.99 2.89 7.72zm1.14-47.47c.1 1-1.54 5.26-2.41 3.1-.52-1.2 2.93-6.84 2.41-3.1zm1.38 51.31c-.6.23-1.39-.76-1.26-1.32.49-.92 2.16.77 1.26 1.32zm6.28-2.24c-.87-2.8-.1-6.29-1.37-8.89-2.24.4-3.52-3.19-4-5 .43-3.83 4.12-1.07 4.16 1.48.13.89.4.87 1 1.26 1.17 1.8 1 4.17 1.5 6.24.13 2.8 2.84 4.76 2.6 7.57-1.07 5.6-3.38.11-3.89-2.66zm3.68-2.21a27.646 27.646 0 00-1.28-3.71c-.32-.79-.82-1-.28-1.33.94-.21 1.48 2.49 2.21 3.35 1.69 2.9 4.13 6.72 3.89 10.14-1.87 3.85-4.23-7.08-4.54-8.45zm17.87 13.67c-2.8 3.57-5.41-10.8-7.2-12.36-1-1.3-2.19-2.73-2.51-4.15-.65.12-1.44.46-2-.3a4.821 4.821 0 01-1.1-3.38 2.295 2.295 0 01-1.21-2.25c.25-.68.93-.05.93.41 0 .24 0 .73.33.63.44-.49 0-2.49 1.7-2.46 1.81.7 1.78 3.66 2 5.34 0 .48-.41 1.23-.22 1.45.19.22.2.12.38.31 2.88 2.21 4.75 5.28 6.45 8.43.98 2.05 3.17 6.12 2.45 8.33zm-.3-12.15c-.69-3.29-3.49-6.33-3.16-9.68.33-.61 1.41-1.33 1.88-.67 1.68 2.13 2.1 5.2 2.83 7.7.78 3.3 2.54 6.76 2.58 10.13-2.14 3.87-3.22-6.28-4.13-7.48zm11.45 11c-.58.73-1.31-.3-1.87 0-.4.49-.87 1.09-1.68.66-2.1-.29-5.91-12.46-3.08-12.41 1.1.06 1.1 1.52 1.54 2.26.25 1 1.46-.19 2.15.83a16.687 16.687 0 012.47 5c.49 1.22 1.46 2.51.47 3.66zm.58-38.46c-1.78 3-3-4.71-3.42-5.81-.84-3.6-.71-8.49 2.2-11.16.67-.4 1.16.57 1.33 1.14.36 2.354.4 4.745.12 7.11-.2 2.9 1.05 6.33-.23 8.72zm0-50.87c-1.73.09 1.7-6.6 1.51-4.44-.38 1.27-.24 3.75-1.52 4.44h.01zm1.07-38.06a16.232 16.232 0 011.07-14.4c.33-.57.64-.59 1-.9.36-.31.23.07.47.11.42-.1.32-1.17.42-1.6.05-1.18-1.64-1.45-1.5-2.66 0-1.25.26-2.5.17-3.74 0-.32-.06-.83-.5-.69-1.55.65-2.07 2.42-4 1-3.31-2 4-4.25 4-6.52.25-1.35-.8-2.66-.28-4 .52-1.06 2-1.39 3.07-1.64 1.19.15 2.15 1.89 1.37 2.91-2.56 1.45-2.84 4.5-2.11 7.11.27 2 0 3 2.05 1.34.9-.21.95.94.91 1.58-.08 2.4-1 4.73-.83 7.14 0 1.88 1.82 3.41 1.19 5.42-.37.68-.38 3-1.5 2.48-.33-.55-.93-1.57-1.45-.56-.82 2.84 1.54 5.61 1.16 8.58.18 4.62-2.76 3-3.22-.42-.18-1-1.09.34-1.5-.54h.01zm1.88 37.17c.29-4.37 4-5.93 2.45-.25-.09.59.12-.5.21-.61.59-1.86.88-3.9 1.31-5.82.12-.55.3-2 1.08-1.59 1.13 1.67.2 4.23 1.41 5.83.62.46 1.48.4 1.92 1.15 1.06 1.67.24 3.47.12 5.33-.2 1.52.14 4-1.35 4.85-.88.52-1.87-.18-2.81.21-.71.18-1.18 1.63-1.86 1.22-1.14-1.84-1.16-4.2-1.37-6.2-1.34-.75-1.46-2.59-1.12-4.12h.01zm6.77 27.1c2 .32 1.16 2.58.8 4-.5 2-.65 4.67-2.15 6.22-.94.75-1.72-.67-1.93-1.49-.89-3.06-.45-8.02 3.27-8.73h.01zm-1.22-12.16c.41-2.54 2.56-.93 1.92.91-.64 1.84-2.29.72-1.93-.91h.01zm-3.8 10.51c-.27-1 .92-3.12 1.21-1 .22.8-.87 2.58-1.22 1h.01zm0 55.12c-.82-.44-2.14-2.92-1.21-3.67.49-.26.65.23.83.65.24.71 1.61 2.95.39 3.02h-.01zm1.26-21.75a58.244 58.244 0 01-2-8.33c-.63-2.58-2.29-7.51 1.08-8.71 2.1-.27 2.82 2.34 3.2 3.93.72 3.25 1.38 6.57 2.11 9.81.59 2.63-2.22 6.57-4.38 3.3h-.01zm3.29 31.15c-.75.87-2.06-1.93-.83-1.7.51.24 1.22 1.19.84 1.7h-.01zm6.56.17c-2.24 2.77-7.31-5.21-8.72-6.91-1.67-2-.72-6.12 2.09-3.35 1.93 1.83 3.38 4.2 5.14 6.15.99.96 2.26 2.64 1.5 4.11h-.01zm-5.37-13.6c-.42-1.13-.83-4.8 1.28-3.33 1.8 3 3.25 6.4 5.34 9.27.88 1.25 6.68 6.79 2.24 6.33-4.58-2.23-7.83-7.38-8.85-12.27h-.01zm14.55 21.83c-.91-.58-7.19-6.78-3.92-5.14 1.61 1 4.66 2.35 4.63 4.72.09.6-.44.64-.71.42zm8.08-4.52c-1.36-1-2.51-2.27-4-3.24-1.58-1.52-5.05-2.73-5.08-5.13 1.33-1.1 3 .55 4.22 1.49 1.91 1.93 5.59 4 5.61 6.78-.19.32-.42.23-.75.08v.02zm.9-27.68c-.87-2.57 1.48-3.29 2.76-1.1 1 2.49 2.77 5.07 2.58 7.79-2.13 2.76-4.75-5.16-5.34-6.71v.02zm4.92 14.2c-.73 1.59-3.12.4-3.33-1 .46-3.19 3.75-1.62 3.33 1zm-4.5 16c-.26-1.59 2.57-1.32 2.74 2.37-.46 1.13-2.75-1.64-2.74-2.37zm21.53 5c-.34.5-.45.28-1 .12a70.979 70.979 0 01-9.06-5.79c-3.53-2.9-8.12-4.95-11.06-8.45-2.5-7.17 12.11 5.26 13.52 6.55 2.15 2.26 5.15 4 7.42 6.11.426.335.507.958.18 1.39v.07zm-11.25-30.84c.07-.75.94-2.46 1.64-1.42a10.216 10.216 0 011.38 2c1 2.65 3.78 6.59 2.86 9.46-.34.76-.21.43-.76.09-2.73-2.38-5.38-6.48-5.12-10.2v.07zm13 23.42c-1.59.24-2.55-1.63-3.62-2.55-.88-1.13-2.24-2-2.59-3.4.14-1.65 2.15-1.21 3.1-.45a9.806 9.806 0 013.15 4.33c.35.56 1.04 1.77-.06 2l.02.07zm4-6.55c-1.39 1.13-3.48-.24-4.71-1.18-5.74-4.8-6.48-13.42-8.92-20.08-.2-.47-.05 0-.07.19a1.053 1.053 0 01-.83 1c-2 .05-1.72-2.72-2.34-4-.13-1.68-1.42-3.33-1-5 .146-.39.52-.651.937-.651.283 0 .553.121.743.331 1 1.33 1.21 4.63 1.81 5.4-1.11-2.43-.52-7.23 2.13-2.72 2.32 6.49 4.21 13.32 6.6 19.77a9.202 9.202 0 004 4c.9.59 2.42 1.74 1.58 2.91l.07.03zm2.93-4.43c-1.72 1.15-2.62-1-.81-1 .22.09 1.34.66.74.93l.07.07zm5 10.41c-.31 5.59-3.26-2-2.88-3.71 1.46-2.77 3.21 2.21 2.78 3.64l.1.07zm-3-17.27a59.576 59.576 0 01-7.45-5.95 1.529 1.529 0 01.24-2.44c2-.46 3.73 2.09 5.16 3.23 1.25 1.85 5.35 3.72 5.17 5.88-.82.89-2.28-.52-3.18-.79l.06.07zm5.67-13.19c-.6.57-.87-.61-1.1-1-.23-.39-.72 0-1.11-.23a10.085 10.085 0 01-2.91-4.84c-.17-.26 0 0-.32.05a1.766 1.766 0 01-2.2-.82c-1-3.36-2.64-6.9-2.31-10.43 0-.78.05-1.43.94-1.28 2.79 1.19 3 6.05 3.82 8.61.3.83 0 2.42.75 2.28.38.1.74-.09 1.13.13 1.62 1 1.73 3.21 2.71 4.67a2.002 2.002 0 01.54 2.79l.06.07zm-.77-5c-.85-1.25-1.85-3.3.07-3.82 2 .26 2.87 3.27 3.9 4.83.26 1.42 5.27 7.51 2.52 7.5-2.97-2.13-4.58-5.64-6.55-8.61l.06.1zm4.55 22.72c.72 1.19 4.79 6.05 1.15 5.42-2.25-1.12-5.34-8.56-1.21-5.52l.06.1zm-1.92 13.41c1.94-1.88 6.44 1.47 5.22 3.88-1.22 2.41-7.35-1.83-5.22-3.88zm5.26 10c-1.29 1.57-6.55-2.8-5.52-4.26 1.1-1.12 2.55.54 3.47 1.2.79.82 2.99 1.79 2.06 3.07l-.01-.01zm.54-24c-1.9 1.9-6.36-4.27-3.78-5.51 2.42-1.1 5.61 3.62 3.79 5.51h-.01zm1.43-40.23c-2.06.25-3.16-2.12-4.35-3.52a30.573 30.573 0 01-3.87-5.48c-1-1.37.41-3.54 1.73-1.92 1.37 2.61 10.61 8.23 6.5 10.92h-.01zm2.64 51.83c-.86 3-2.6-1.12-1.08-2.14s1.34 1.3 1.09 2.14h-.01zm1.32-26.46c-.84.74-1.64-1.2-1.53-1.88 1.05-2.53 2.98.37 1.54 1.88h-.01zm-.59-30.24c1.9-.11 2.63 2.07 2.24 3.64 0 1.61.54 3 .72 4.6.28.94 1.91 12.65-.31 10-.58-2.15-.35-4.54-1-6.72-.25-2.66-5.81-10.7-1.64-11.52h-.01zm10 41.57c-1.13 1-.84-.64-1.13-.95-1.77-.52-3-2.55-4.25-3.83-.9-1.11-2.53-2.45-2.65-4 1.35-4.49 8.37 4.07 8.13 6.41a3.493 3.493 0 01-.34.94c-.02.52.79.49.24 1.43zm0-14.66c-1.41.41-1.4-7-.12-6.45 1.3 1.3 2.05 5.4.16 6.45h-.04zm3.13 13.17c-.57 2.44-2.38.88-2.31-.91-.16-1.15.84-3.46 2-1.93.561.837.691 1.892.35 2.84h-.04zm2.6-23.64c-.3-2.5-.48-4.93-1.9-7.11-1.1-1.5 0-5.79 2.16-3.68 1.2.68 2.41 16.42-.22 10.77l-.04.02zm3.44 39.09c-.41 1.1-1 3.23-2.44 3.11-.78-1.12.81-3.45 1.44-4.53.87-.69 1.38.79 1.04 1.42h-.04zm2-7.19a15.51 15.51 0 01-.58 4.3c-.19.46-.61.15-.66-.21-.41-2.05-.2-4.31-.45-6.41.8-4.51 2.36.57 1.76 2.32h-.07zm1.89-12.07c-1.42-2.83-1-6.1-1.64-9.15-.31-1.75-2.48-3.24-1.76-5.07 1.5-1 1.7 3.31 2.26 4.16a20.644 20.644 0 014.22 14.28c-1.15 1.93-2.4-3.44-3.01-4.22h-.07zm6-5.48c-.49 1.81-1.61-2.45-1.55-3.07.89-2.51 1.97 2.24 1.61 3.07h-.06zm-1.1-36.4c-2.06-.32-.62 2.53-.43 3.57.94 1.83 1.87 10.84-.35 7.43-.53-2.45-.42-5.17-1.19-7.59-.08-3-4-3.67-4.45-6.54-1.21-3.3 1.45-5.22 2.45-7.62a67.293 67.293 0 00-3.41-8c-.78-1.86-2.07-4.29-1.43-6.28a5.873 5.873 0 00.45-5.29c-1.12-2.88-3.75-7-2.95-10.18.34-.12.38-.81.94-.29.56.52 1.11.62 1.58 1.54 2.9 5.06 2.84 11.38 5.15 16.59 1.15 3-1.16 6.09.58 8.72.78 1.84 2 2.93 3 4.56 1.06 3.31 2.51 6.69 2.55 10.21-.41 2.03-1.7-.4-2.43-.8l-.06-.03zm1.86-15.5c1.53-.16 2 2 2.09 3.27-.72 5.13-5.13-2.36-2.03-3.27h-.06zm3.45 63.35c-.57 2.24.15 4.72-1.1 6.82a.712.712 0 01-.641.406.713.713 0 01-.709-.666c-.37-.92 2.92-12.05 2.51-6.56h-.06zm.26-39.75c-.57 2-3 1.19-2.68-.72.43-2.79 3.44-1.73 2.74.72h-.06zm4.46 14.8c-.47 2.73-3.25-2.58-3.32-3.56-.57-5.1 3.35 2.07 3.38 3.56h-.06zm.29 12.89c-.28 8.13-3.05-3.75-2.64-5.84 1.76-4.92 3.17 3.49 2.7 5.84h-.06zm-.06-40.22c-.49 3.2-2.76 3.35-3.6.28 0-2.17.26-4.43-.26-6.63-1.73-8.72-5.29-17.63-5.87-26.4.2-2.1 3 .73 3.59-.57.29-.72.27-.59-.34-1.48-3-4.43-5.44-10-8.45-14.44-6.82-10.23 1-5.89 6-1.61 1.81 1.2 1.37 3.23 1.51 5.24.27 3.72 2.78 8.09 2.84 11.66.56 3.09 3.81 5.46 4 8.48-.61 1.59-3.23-1.37-3.59.69 1.41 8.18 5.26 16.35 4.23 24.78h-.06zm-3.82-41.64c-.26-.72.88-1 1.34-.51 1.25.61 3.86 7.66 1.17 6.35a49.99 49.99 0 01-2.51-5.84zm3.35-12.46c-.94-1.6-4-2.85-3-.52.18.58 1.93 2.12.76 2.28-2.67-.57-4-4.08-5.79-6-5.64-4.53-7.82-9.81 1.43-4.62 4.05 1.42 8.19 3.65 10.79 7.14 2.46 5.5-1.29 5.93-4.23 1.72h.04zm2.79 12.67c2.32.93 1.88 4.42 3.52 6.26 2.18 2.84 2.9 5.76 1.64 9-.29 1.56.22 3.67-.74 5-2.28 1.08-1.25-3.15-1.47-4.35-.15-2.2-3.31-3.74-2.36-6 .23-.64.78-.88.69-1.59a15.05 15.05 0 00-1.19-5.4c-.4-.77-1.86-3.18-.13-2.92h.04zm1 49.42c-2.21 1.47 0-5.06.06-6.06.26-1.37.68-2.84.94-4-.09-.92-.53-1.72-.56-2.74a59.197 59.197 0 01.72-10.36 2.008 2.008 0 011.89-1.9c1.47.8 1.38 3.4 1.27 4.95-.36 3-1.85 6-1.84 8.94 3.7 2.75-.21 8.54-2.51 11.17h.03zm2.18 5.72c-.67 2.14-2.25-.66-1.59-1.74.42-1.35 1.84 1.1 1.56 1.74h.03zm1.5 9.89c-1.27-.19-1.84-2.31-2.55-3.31-.48-1-2-2.85-.6-3.56 1.07-.87 4.73 6.84 3.12 6.87h.03zm-3.94 29.29c-.15 1-1 2.28-1.38.57-.38-1.71 1.76-3.06 1.35-.57h.03zm.09-18.35a10.163 10.163 0 01-1.67-5.08c.32-1.57 1.73-.42 2 .57.31.76 1.62 6.43-.36 4.51h.03zm3.07 4.69c-1.17 4.74-3.75-2.26-.83-2.2.89.3.97 1.37.79 2.2h.04zm2-7.13c-1.37 2.9-2.9-4.85-2-5.48.42-.5 1 .34 1.19.72.56 1.53 1.18 3.12.77 4.76h.04zm.45-24.39c-1.54 0-2.3-3.4-1.86-4.62 1.1-1.63 2.77 4.2 1.85 4.62h.01zm2.25-39.15c-1 4.4-3.16-2.29-2.1-3.83 1.8-2.27 2.78 2.54 2.09 3.83h.01zm.26 12.14c.2-1.72-.55-8.36 2.6-6.63 1.29.72-1.6 10.09-2.6 6.63zm2.77 36.23c-.3-1.16-3.92-8.85-.64-7.16a13.538 13.538 0 012.6 6.7c.14 1.54-1.39 1.99-1.97.46h.01zm.35 23.66a13.994 13.994 0 011-5.18c1.33-1.54 1.18.84 1.07 1.75.19 1.37-1.19 7.73-2.08 3.43h.01zm2.55-50.6c-.59 2.06-1.19-.07-.81-1 .38-.93 1.14.47.8 1h.01zm2.28 33.69c-.72 1.31-1.52-.4-1-1.16.52-.76 1.38.54.99 1.16h.01zm.46-37.08c-.27-.09-.12-.57-.44-.49-.32.08-.22.6-.64.32-1-.43-1-4.3-1.25-5.52.18-1.49-1-4 .53-4.48 2.26.84 1.35 6.38 1.72 8.42.08.52.08.18.24-.09 2.25-3.81 2.14 2.46-.17 1.84h.01zm2.88 30.45c-.22 2.86-1.34.32-.88-1 .59-1.97 1.13.08.87 1h.01zm1.22-25.06c-.53 1.23-1.38 3.27-2.78 3.31-1.27-.35 0-2.53.19-3.52 1.21-4.67 3.84-5.32 2.58.21h.01zm.32-6.49c-.79-2.24 1.43-5.5 1.58-7.82-3.78-3.13-4.93-7.73-7.1-12.13-1.61-4 2.4-1.55 3.7.11 1.72 2.31 3.14 5.55 4.58 7.89.28.55.11.22.34.15a1.092 1.092 0 011.88.44c1.11 3-1.09 6-2.61 8.43-.77.71-1.13 3.6-2.38 2.89l.01.04zm1.48 20.35c-2-1.22-.91-10.66 1.45-5.79.34 1.19.33 6.17-1.46 5.79h.01zm4.17 7.3c-.19 1-2.49 10.18-3.46 6.12.36-2.64 0-5.92 1.42-8.23 1.35-1.46 2.4.83 2.03 2.11h.01zm2.71-9.41c-1 2.53-2.63 2-1.95-.71a46.765 46.765 0 001.83-9.24c.91-1.93 2.21-.45 2.16 1.11.4 3.01-.8 6.16-2.05 8.84h.01zm2.81 13.47c0 .85-.92 1.75-1.7 1.06a2.591 2.591 0 011-3.75c.84.44.93 1.78.7 2.69zm1.9-38.74c-.36-.44-.47-.81-.81-.13-1.47 1.34-3-1.48-1.94-2.68 1.06-1.2 1.66.73 2 1.41-.06-3.6-2.53-10.3-5-14.21a.753.753 0 00-1-.25c-3.76 0-6.7-1.6-10-3.24-2.8-1.7-1.87-5.81-3.62-8.33-1.49-4.82 4.85-2.86 7.27-2.08 3 1.39 4.29 4.73 6.32 7.2.15.21.18.58-.31.41-1.31-.15-2.76-1.73-4-2.75-1.24-1.02-2.59-3.62-4.42-3.23-.77.21-.68.8-.18 1.35 3.79 4.18 7.52 8.52 13 10.69 4.11 1.12 3.93 5.41 3.42 8.84-.19 1.49 1.51 7.91-.78 6.99l.05.01zm-9-46.09c4.54 3.38 10.35 7 14.31 11 .47.48.14.18.31 0 .72-.94 2 0 2.69.63a1.23 1.23 0 01.13 1.76c-.07.3-.17.15.31.54 1.65 1 4.94 5.7.55 4-.49-.15.3.66.36.91.82 1.12.36 2.44-.85 2.08 1.55 1.14 3.3 2.66 4.93 3.64.48-1.87 3.48 1.35 1.64 1.88-3.72.51-8.05-2.6-11.4-5-1.16-1.51-6.54-5.24-3.86-7 3 .64 5.05 4.44 7.74 5.86.62.36-.24-.39-.32-.52-.53-.84-1.62-2-.83-3-4-4-11.62-9-16.24-14.08-1.63-1.52-2-4.13.47-2.7h.06zm-.68-19.39c.34-4.87 3.41.17 3.38 2.18-1.12 2.62-3.47-.54-3.44-2.18h.06zm3.76 16.8c-.06-2.67 2.69.42 1.71 1.43-.91.69-1.69-.64-1.77-1.43h.06zm9.61 1.38c1.46-.42 1.75 2.53 2.53 3.43 3.26 6.1-5.12-1.59-2.59-3.43h.06zm8.2 48.63c-1.37 2.13-3-4.76-.72-3.22a3.49 3.49 0 01.66 3.22h.06zm-3.24-12.14c-.7-.4-.82-1.69.26-1.5 1.08.19.8 2.37-.32 1.5h.06zm.13 23.7c-.08.69-.41 2-1.29 1.85-1.29-.6 1.24-4.75 1.23-1.85h.06zm-3.87-18.39c-1.81-.25-1-3.34.68-3 1.68.34.84 3.18-.74 3h.06zm-5.64-19.19c-1.37 1.6-3.66-2.07-1.42-2.21.87.01 2.18 1.33 1.36 2.21h.06zm2.55 34.58c.34-1.22.47-3.79 2.16-3.54 1 1 0 2.83-.15 4.08-.64 1.33-.7 4-2.42 4.24-1.07-1.1.03-3.47.35-4.78h.06zm9.75 16.9a35.384 35.384 0 01-6.31 13.74c-.52.56-1.65 2.26-2.4 1.22-.37-2.06 1.8-3.77 2.53-5.66.61-.94 1.171-1.912 1.68-2.91.16-.35 1-1.76.3-1.52-1.2 1-2.32 3-4 3.76-4.84 1.93 1.07-6.91 1.87-8.33 1.35-2.36 3-6.28 4.44-1.77.38.44.32 0 .61-.18 1.11-.98 1.62.66 1.22 1.65h.06zm.67-12.3c-.31 1.6-1.59.43-1-.67.44-1.43 1.37-.32.94.67h.06zm9.51-5.26c-.17.5-1.07 3.6-1.67 2.73.158-1.128.379-2.246.66-3.35.72-1.71 1.14-.62.95.62h.06zm-.15-20.49c-.91 1.66-2.66 2.84-2.79 4.94-1.73 5.46-1.84 11.64-4.44 16.74-3.23 2.19 1.82-14.31 2.17-15.66 1.14-2.73.65-6.07 2.37-8.48 1.51-1.76 3.05.92 2.63 2.46h.06zm-5-38.44c.64-1.75 2.86 1 1.34 1.56a1.24 1.24 0 01-1.42-1.56h.08zm-4.35 2.69c.81-1.12 1.77.73 2.17 1.41 1 1.89 2.23 3.63 3.31 5.47.86 4.2-3.3-2.21-3.77-3-.79-1.71-.57.15-.25.83.32.68-.11 2.58-1.21 1.77-1.1-.81-4-7.37-1.5-6.87.44.04 1.1 1.13 1.25.39zm-5-19.73a22.375 22.375 0 013.29 4.52c1.66 2.34 2.59 8.18-1.3 3.51-1-2-3.17-5.87-3.4-8 .16-.68 1.02-.37 1.44.01l-.03-.04zm-5.94 1.36a23.852 23.852 0 003.43 5.08c1.43 1.63-.05 3.5-1.6 1.55-1.87-2.08-4.27-4.59-3.84-7.56.55-.92 1.73.39 2.04.97l-.03-.04zm-1.46 11.54c-3-2.24-4.13-8-5.26-11.9.12-3.74 3.57 3 4 4.15.68 2.58 2.51 5.52 1.29 7.79l-.03-.04zm-7.75-42.77c.48.51 2.65 4.23 2.48 4.7-.82-.12-1-1.73-1.57-2.4-.19-.6-1.3-1.95-.91-2.3zm1.26 22.23c-.71-1-4.71-10.72-1.55-9.31 3.8 3.28 10.22 24.29 1.53 9.31h.02zm-4-21c.75.9 2.06 3.24 1.66 4.35-.94.37-1.26-1.48-1.8-2s-1.39-2.66.09-2.34l.05-.01zm-1.48 34.51c3.43 6.65-2.09 2-2.79-1.18-.53-3.2 2.23.04 2.74 1.19l.05-.01zm-2-13c3.83 8.51-6.45-2.4-5.27-5.5 1.4-2.31 4.49 4.43 5.22 5.52l.05-.02zm57.22-79.2c-3 3.59-6.27-1.93-2.74-3.91 2.4-1.11 4.09 1.97 2.74 3.91z"/><path d="M302.295 286.625a2.195 2.195 0 01-.31.61c-.331.507-.72.974-1.16 1.39a17.79 17.79 0 01-2.82 2.15 1.442 1.442 0 01-.63.25l-.19-.06a.47.47 0 010-.47c.05-.12.1-.25.14-.37.118-.231.255-.452.41-.66a5.48 5.48 0 01.56-.71 6.716 6.716 0 011.27-1.11l.66-.45.55-.43c.241-.223.498-.427.77-.61l.35-.18a.479.479 0 01.48 0c0 .06.05.12.07.19a.88.88 0 01-.15.46zm85.3-117.36c-.28-.07-.66-.58-.47-.9.36-.42.96.76.47.9zm-104.77 40.99c-.15.61-1 .06-.84-.4.18-.65 1.01-.11.84.4zm54.12-150.54c.37 0 1.31 1.9.53 1.66-.29-.35-.83-1.3-.53-1.66zm-77.96-17.02c.44-.06.77.92.26 1-.51.08-.75-.85-.26-1zm4.9 50.15c-.8 0-1.11-1.71-.11-1.55.62.08.7 1.41.11 1.55zm1.06 25.09c-1 1-.89-1.7 0-.83.135.26.135.57 0 .83zm-43.61 105.91c-.08.37.1 1.06-.2 1.28-.67-.11-.14-2.94.2-1.28zm-2.44 38.42c-.1.42.05 1.46-.39 1.58-.31-.18.1-1.19.06-1.56-.04-.37.44-.44.33-.02zm-1.91-114.72a3.287 3.287 0 01-.23.92c-.69 1-1.39-.46-1-1.14a.627.627 0 01.615-.515.628.628 0 01.615.735zm-17.94-96.79c.9-.65.67 1.26 0 .63-.11-.18-.2-.48 0-.63zm-2.23-8.73c.54-.76 1.19.12.92.74 0 .65-1.25 1.81-1.4.63.045-.489.21-.96.48-1.37zm-1.97 12.24c.34.46-.65 2.4-.76 1.24-.05-.36.22-1.89.76-1.24zm-7.32 157.1c.015-.425.235-.817.59-1.05 1.46-.13-.01 2.74-.59 1.05zm-43.93-64.07c.55-.89 1.87.7 1 1.11-.6.2-1.37-.51-1-1.11zm-13.9 21.91c.1-.28.18-.48.18-.42a.62.62 0 01-.18.42zm-13.93-40.44c-.58 0-.45-.93.11-.81s.41.89-.11.81zm3.23 8.08c-.43.2-1-.82-.62-1.1.38-.28 1.08.89.62 1.1zm85.92 129.44c-.65.68-.78-1.48-.17-1.44.61.04.38 1.09.17 1.44zm.85-41.26c-.49 1.21-1.27-.87-.24-.72.31.11.34.45.24.72zm78 32.27c.63-.7 1.6.83.71 1-.42.19-1.14-.65-.71-1zm10.17 15.43c-.43 1.07-2-.41-1.12-.95.54-.24 1.53.31 1.12.95zm27.08-61.37c-.25-.82 1.3-1.14 1.47-.36a.764.764 0 01-.718 1.009.763.763 0 01-.752-.649zm24.42 19.32c.09-.66.61.09.48.41-.13.32-.5-.15-.48-.41zm7.65 15c-.58 1-1.46-.33-.93-1 .21-.36.87-.7 1.06-.2.09.403.045.825-.13 1.2zm17.49-25.54c.92-1 .72 1 .16 1.32-.75.21-.49-1-.16-1.32zm-10.67-54.69c-.26 1.68-2.16-.69-.61-.71a.703.703 0 01.61.71zm6.31-40.84c.39-.09.83.69.61 1-.4.34-.99-.76-.61-1zm-13.3-26.7c.6-.06.67 1 .05 1s-.65-1.06-.05-1zm-2.78 20.6c.43.94-1.07.84-.94 0 .07-.66.77-.45.94 0zm-227.47 134.14c1.17-.19.55-.43 0 0zm-.43.2l.27.08c.044-.084.094-.164.15-.24-.27.05-.49.16-.42.16zm-32.78-44c-2.64-.48-7-1.57-8 2-.54 2.77 2.4 5.66 4.92 5.5 2.62.41 4.09-2.15 5.39-4.09.52-1.24-1-3.04-2.31-3.41zm13.39-3.31c-2 .61-5.65 1.19-6.23 3.6-1.15 2.66 2.14 3 3.53 1.24 1.26-1.19 3.38-2.51 4.26-3.7.33-.48.53-.48 0-.85s-.49-.57-1.56-.29z"/></g></svg>